<?xml version="1.0" encoding="utf-8"?>
<!-- Generator: Adobe Illustrator 26.2.1, SVG Export Plug-In . SVG Version: 6.00 Build 0)  -->
<svg version="1.1" id="a" xmlns="http://www.w3.org/2000/svg" xmlns:xlink="http://www.w3.org/1999/xlink" x="0px" y="0px"
	 viewBox="0 0 246.9 101.5" style="enable-background:new 0 0 246.9 101.5;" xml:space="preserve">
<style type="text/css">
	.st0{fill:#FFFFFF;}
</style>
<g>
	<path class="st0" d="M58.6,88.5c-0.2,0-0.2,0-0.3,0.1c-0.8,0.5-1.5,1.4-2.6,0.6c-1-0.7-0.4-1.8-0.5-2.7c0-1,0.5-1.8,0.5-2.8
		c-0.9,1.5-2.3,2.4-3.3,3.7c-0.9,1.2-2.1,1.8-3.5,2.2c-1,0.3-2.2-0.5-2.3-1.7c-0.3-2.2,0.4-4.1,1.9-5.7c1-1.1,2.8-0.8,3.6,0.4
		c-0.5,0.9-1.1,1.6-1.9,2.2c-0.7,0.5-2,0.5-2,1.8c0.4,0.8,1,0.9,1.8,0.5c2.4-1,3.8-3.1,5.3-5c2.1-2.7,3.6-5.8,5.5-8.7
		c0.4-0.7,0.8-1.5,1.7-1.7c0.9,0.5,0.6,1.2,0.2,1.8c-1.1,1.9-2.4,3.8-3.5,5.7c-1.2,2.4-2.4,4.8-2.3,7.7c2.5-0.2,2.4-3.2,4.3-3.9
		c0.9,1.6-1.2,2.6-0.6,4.2c1.2,0.5,2.4,0.2,3.5-0.5c2-1.3,3.9-2.6,5.9-3.9c0.4-0.3,0.8-0.7,1.3-0.4c0.5,0.4,0.2,1,0.6,1.5
		c1.8-1.1,2.4,0.2,3,1.6c0.3,0.8,1,1.2,1.7,1.5c-0.1,1.6-1.5,1.9-2.8,0.7c-0.5-0.5-1-1-1.4-1.5c-1.4-0.2-2.1,1.8-3.5,1.1
		c-0.4-0.6,0.1-1.1-0.1-1.7c-1.2,0.4-2,1.2-3,1.9c-1.1,0.8-2.4,1.4-3.6,2.1C61.1,90.2,59.7,89.8,58.6,88.5L58.6,88.5z"/>
	<path class="st0" d="M184,16c0.9-2.5,1.3-5.1,2.2-7.5c0.7-1.7,1.4-3.4,1.5-5.4c0.1-1.3,1.3-2.4,2.5-3.1c0.6,0.6,0.3,1.2,0.1,1.7
		c-2.7,6.2-4.3,12.7-6.4,19.1c-0.7-0.1-0.8-0.4-0.8-0.7c0-2.8-2-2.9-4.1-2.3c-1.9,0.6-3.9,1.1-4.5,3.2c-0.6,0.2-0.9,0-1.2-0.4
		c-1-1.3-2.2-1.1-3.4-0.6c-0.9,0.3-1.6,1.1-2.6,0.9c-0.7-0.9,0.5-1.4,0.3-2.1c-2-0.6-4.6,0.5-5.5,2.2c-0.4,0.7-0.6,1.7-1.6,2
		c-0.9-0.6,0-1.7-0.7-2.3c-1.3-0.1-1.6,1.9-3,1.5c-0.6-1.2,0.9-2.1,0.2-3.1c0.8-0.9,1.3-1.9,2.5-2.3c0.6,1.1-0.9,1.6-0.5,2.6
		c0.8-0.1,1.4-1.3,2.4-0.4c0-2,0.7-3.2,2-3.6c0.3,0.4,0.5,1,0.6,1.9c1.7,0.3,3.5-0.9,5.1-0.4c0.6,0.6,0.1,1.2,0.3,1.9
		c1.8-0.8,3.5-2,5.3-0.2C177.6,16.6,180.3,14.6,184,16L184,16z"/>
	<path class="st0" d="M207.8,16c0.7,1.3-0.7,2-0.7,3c1.6-0.1,2.3-1.9,3.8-2c0.6,1-0.5,1.3-0.5,2.1c1.7-0.3,3.1-1.4,4.6-1.9
		c0.7,0.7,0,1.3,0,2c1.7-0.1,3.4-0.3,5.2,0.3c0.6-1.3,1.1-2.6,1.7-3.8c0.7-1.5,1.8-2.7,3.3-3.5c2.1-1,4.9,0.7,4.9,3.1
		c0,0.7-0.2,1.1-1,1.6c-0.4-0.2-0.3-0.7-0.5-1c-0.5-1-1.2-1.8-2.3-1.9c-1.3-0.1-2.2,0.7-2.8,1.7c-1.2,2.1-2.1,4.3-2.5,6.7
		c-0.1,0.8-0.3,1.6-0.9,2.1c-1-0.1-0.9-0.7-0.8-1.3c0.2-1.5-0.3-2-1.8-2.1c-1-0.1-2,0-3,0.1c-0.4,0.1-0.9,0-1.3-0.4
		c-0.3-0.2,0.1-0.6-0.2-1c-1.5,0.3-2.7,1.4-4.1,1.4c-0.7-0.2-0.5-0.7-0.8-1c-0.9,0.2-1.5,1.1-2.5,1c-0.4,0-0.4-0.6-0.9-0.6
		c-0.3,0.3-0.7,0.6-1,0.9c-0.3,0.3-0.7,0.6-1.2,0.2c-0.4-0.3-0.3-0.8-0.1-1.2c0.5-1,1-2,1.5-3c0.3-0.6,0.5-1.2,0.2-2
		c-1.1,0.4-2,0.8-2.7,1.8c-0.6,0.9-1.2,1.8-2.1,2.4c-0.7,0.5-1.4,0.5-2.1,0c-0.1-0.6,0.2-0.9,0.7-1c1.1-0.1,1.6-0.9,2.3-1.6
		c1.1-1.3,2.3-2.6,3.9-3.6c0.5-0.3,1.1-0.6,1.7-0.2c0.6,0.4,0.5,1.1,0.4,1.6c-0.3,1.4-1.2,2.6-1.6,4C205.6,18.2,206.2,16.6,207.8,16
		L207.8,16z"/>
	<path class="st0" d="M107.4,70.3c0.7-0.2,1.2-0.9,2-0.8c0.2,1.1-0.6,1.5-1.2,1.8c-2.7,1.3-4.8,3.6-7.7,4.6c-0.1,0-0.2,0.1-0.3,0.2
		c-2.2,0.7-2.8,1.2-2.7-1.6c0-0.9,0.1-1.9,0.1-2.9c-2.2,0.2-3.4,1.8-4.3,3.6c-1.1-0.5-1-1.2-0.7-1.8c1.1-2.3,3-3.6,5.4-4.2
		c0.7-0.2,1.2,0.3,1.4,1c0.3,0.9,0.9,1.5,1.7,2C103.1,71.3,104.9,69.7,107.4,70.3L107.4,70.3z"/>
	<path class="st0" d="M190.6,47.7c1,2-0.7,3.2-0.8,4.7c0.9,0.2,1.4-0.7,2.2-0.7c1.1,0.5,0.2,1.4,0.2,2.1c0.8-0.4,1.2-1.2,1.3-2.3
		c0-0.8,0-1.7,0-2.5c0-0.8,0.3-1.5,1.3-1.8c0.7,1.9,2.4,1.7,3.9,1.9c1.6,0.1,2.1,0.9,1.7,2.4c-0.1,0.3-0.2,0.7-0.3,1.1l0.7,0.5
		c0.2,0.8-1.5,1.9-2.6,1.7c-0.5-1.3,1.1-2.2,0.7-3.6c-1-0.6-2.2-0.7-3.6-0.7c-0.5,1.4-0.7,2.9-1.9,4c-0.1,0.1-0.1,0.2-0.2,0.3
		c-0.5,0.5-1,1.3-1.9,1.1c-1-0.2-0.6-1.2-0.8-1.9c-0.8,0-1.6,0.9-2.5,0c-0.1-1.3,1.3-2.1,1.2-3.6c-1.3,0.6-2,1.9-3.5,2.7
		C187,50.6,188.6,49.1,190.6,47.7L190.6,47.7z"/>
	<path class="st0" d="M95.1,23c0-2.1,5-6.3,7.9-7.1c0.7,0.4,0,1,0.2,1.6c2.9-0.5,1.1,2.7,2.7,3.3c-0.2,0.8-0.7,1.2-1.3,1.4
		c-1,0-1.1-1-1.6-1.5c-0.8-0.4-1.7,0.6-2.4-0.5l0.3-1.1C98.5,19.8,97.4,22.2,95.1,23L95.1,23z"/>
	<path class="st0" d="M108.3,53.3l1,0.6c2.2-1.5,0.4-3.8,1.2-5.5c-0.5-0.4-0.6,0.3-0.9,0c0.3-1.7,2.1-4.8,3.2-5.3
		c0.3,0.7-0.3,1.2-0.5,1.8c-0.5,1.9-0.5,3.8-0.3,5.7c0.2,1.9-1.3,4.3-3.1,4.9c-0.5,0.2-1,0.1-1.2-0.4
		C107.4,54.4,107.7,53.9,108.3,53.3L108.3,53.3z"/>
	<path class="st0" d="M112.7,17c1.1,1.5,2.4,2.6,4,3.1c0,1.1-0.6,1.2-1.3,1.3c-1,0-2.1-0.2-3-0.6c-1-0.4-1.9-0.9-1.8-2.2
		C110.7,17.4,111.9,17.6,112.7,17z"/>
	<path class="st0" d="M245.8,54.3c-0.4,1.4-4.5,2-6.1,0.9C240.2,53.2,243.3,53,245.8,54.3z"/>
	<path class="st0" d="M131.4,44.2c-0.9,0.9-3.9,0.6-5-0.4c0.5-1.5,1.2-1.9,2.6-1.1C129.7,43.1,130.7,43.2,131.4,44.2z"/>
	<path class="st0" d="M168.4,7.6c0.4-0.7,0.7-1.5,1.5-1.5c1.3,0.2,2.2,1.1,3,2.1c-0.7,1.6-1.6,0.5-2.5,0.2l-0.9,0.3
		C169,8.6,168.7,8.2,168.4,7.6L168.4,7.6z"/>
	<path class="st0" d="M96.7,84.4c-0.2,0.7-0.5,1.1-1.2,1.4c-0.7-0.8-2,0.1-2.9-0.9c0.4-1,0.9-1.9,2.1-2
		C95.9,82.8,96.3,83.7,96.7,84.4z"/>
	<path class="st0" d="M60.3,37l1.2-1.5c0.1-0.1,0.2-0.1,0.4-0.1c2.4,1.3,2.8,2.1,2,3.4c-1.2-0.2-2.3-0.8-3.4-1.5
		C60.2,37.2,60.2,37.1,60.3,37L60.3,37z"/>
	<path class="st0" d="M214.3,10.5c-0.3-0.9-0.3-1.7-0.8-2.4c0.2-1,1.1-1.3,1.7-1.9C216.6,7.4,216.1,9.6,214.3,10.5L214.3,10.5z"/>
	<path class="st0" d="M245.7,57.8c-0.9,1.4-3.1,1.2-4-0.4C242.2,55.7,243.5,56.3,245.7,57.8z"/>
	<path class="st0" d="M204.5,45.8c-0.5-1.8-1.2-1.1-1.9-1.1c-0.1-1.1,0.7-1.5,1.4-1.7c0.9-0.2,1.4,0.5,1.6,1.3
		C205.8,45.1,205.4,45.6,204.5,45.8z"/>
	<path class="st0" d="M163,39.4c0-0.8,0.5-1.3,1.1-1.6c0.9,0.2,1.1,1,1.5,1.6c-0.1,0.6-0.3,0.9-0.8,1.2L163,39.4L163,39.4z"/>
	<path class="st0" d="M82.7,20.6c-2.5,0.5-3.8,0-5-2.3c-0.2-0.4-0.4-0.9-0.9-1c-0.8,0-1.1,0.8-1.9,1c0.2-0.7,0.9-1.3-0.1-2
		c-2.1,0.6-3.6,2.6-6,2.7c-0.3-1,1.1-1.8,0.3-2.8c-0.9-0.1-1.1,0.8-1.8,1.1c-0.2-0.6,0.6-1,0-1.8c-2.8,1.1-5.1,3.4-8.3,3.8
		c1-0.7,2.8-0.6,2.2-2.7c-1.2-0.1-2-0.9-2.9-1.9c-2.3,3-5.1,4.1-8.5,2.5c-0.2-0.7-0.1-1.3,0.1-1.8c1-3.2,1.7-6.5,1.6-9.9
		c0-0.7,0-1.4-0.8-1.7c-0.8-0.3-1.5-0.1-2.1,0.5c-2,2.2-3.3,4.7-3.4,7.7c-0.1,2.5,0.7,4.6,2.3,6.5c-1,2.2-1.8,4.5-3.3,6.5
		c-0.7-0.5-0.8-1.1-0.9-1.6c-0.1-1.7,0.2-3.3,0.6-5c0.1-0.6,0.4-1.2-0.4-1.5c-0.6,0.1-0.8,0.6-1.2,1c-1.1,1.3-2.2,2.7-3.4,4
		c-0.8,0.8-1.6,1.8-3.3,1.3c1.5-6.5,4.7-12.4,5.6-19.1C39.6,4.7,37,9.7,37,11.6c0.8-0.3,0.7-1.4,1.6-1.8c-0.1,0.4-0.1,0.6-0.2,0.8
		c-1,3-2,6-3,9c-0.5,1.4-0.9,2.8-1.3,4.2c-0.2,0.7-0.1,1.4,0.5,1.8c0.6,0.4,1.1,0.2,1.7-0.1c1.3-0.7,2.5-1.5,3.4-2.8
		c0.5-0.8,1.1-1.5,2-2.1c0,2.3-1,4.7,1,6.8c3.5-1.6,3.6-5.5,5.8-8c1.3,0.4,2.6,0.7,3.9,0.8c0,1.3-0.9,2.5,0.3,3.6
		c1.8-0.4,1.9-2.7,3.5-3.4c1.3,1.4,2.4,1.6,4.5,0.6c1.4-0.7,2.8-1.6,4.3-2.4c0.2,0.8-0.7,1.4-0.1,2.1c0.9,0.3,1.2-0.8,2-0.8
		c0.1,1.7,0.6,2,2.2,1.4c1.4-0.5,2.5-1.6,3.9-2c0.2,0.6-0.5,1.2,0.3,1.7c1.2,0.1,1.7-1.3,2.9-1.5c0.9,1.8,2.3,3.1,4.5,3
		c1.9-0.1,3.7-0.7,5.4-2.2C84.5,19.7,83.6,20.4,82.7,20.6L82.7,20.6z M48.1,15.5c-1.9-2-2.2-6.4-0.4-8.5c0.4-0.5,0.6-0.5,1.7-0.3
		C49.7,8.6,49,13.6,48.1,15.5z"/>
	<path class="st0" d="M45.4,79.5c-2.3,0.2-4.3,1-6.4,1.8c-1.7,0.7-3.2,1.7-4.3,3.3c-1.2,1.8-4.6,2.8-6.9,1.8C29,86,28.6,84.8,29,84
		c0.3-0.6,0.5-1.2-0.1-1.8c-0.6-0.5-1.2-0.2-1.8,0.1c-0.3,0.1-0.6,0.4-0.9,0.6c-1.9,1.3-3.8,2.5-5.8,3.5C20,86.6,19.6,87,19,86.6
		c-0.1-0.9,0.9-1.8,0.1-2.9C17,84.9,14.9,86,12.3,86c0.3-0.8,0.5-1.4,0.7-2.1c1.1-2.5,2.1-5.1,2.6-7.8c0.3-1.7-0.6-2.8-2.2-2.2
		c-3.6,1.3-6.4,3.6-7.8,7.3c2.4-2.4,4.6-5.1,8.3-5.4c0.5,1.6-1,6.9-2.2,8.3c-0.8-0.1-1-1-1.8-1c-1.3,0.9-1.8,2.7-0.8,3.7
		c1,0.9,0.9,1.9,0.4,2.9c-1,1.9-2,3.8-3,5.7c-0.7,1.3-1.3,2.6-1.7,3.9c-0.2,0.6-0.2,1.3,0.4,1.8c0.6,0.5,1.1,0.2,1.7-0.1
		c0.9-0.5,1.5-1.2,2-2.1c1.6-3,2.4-6.2,2.6-9.6c0-0.7,0.3-1.1,1-1.3c1.7-0.5,3.3-1,5-1.5c0,0.1,0.1,0.2,0.1,0.3
		c0,2.1,0.3,2.2,2.3,1.5c1.7-0.6,3-1.9,4.9-2.3c-0.2,1.3-0.7,2.5,0.3,3.2c0.2,0.6-0.6,1,0.1,1.6c0.7-0.5,1.2-1.4,2.3-1.4
		c2.6-0.1,4.9-1.3,7.1-2.6c0.5-0.3,0.9-0.6,1.2-1.1c1.6-3.1,4.8-3.2,7.9-4.4c-0.7,1.9-1.2,3.4-1.1,4.9C41.8,87,41,86.8,40.2,87
		c-0.4,0.5-0.9,0.9-0.7,1.7c0.7,0.5,1.4,0.6,2.2,0.7c0.7-0.8,1.3-1.4,1.8-2.1c0.6-0.8,1.1-1.6,0.9-2.6c-0.2-1.1,0-2,0.6-3
		C45.4,81.1,46.2,80.3,45.4,79.5L45.4,79.5z M6.6,99.2c-2.1-1.1,2.7-7.8,2.9-7.9C10.1,91.1,9.4,100.7,6.6,99.2z"/>
</g>
<path class="st0" d="M140.7,16.3c-1.3,0.7-2.7,0.9-4.1,1.1c-1.4,0.3-2.8,0.5-4.2-0.1c-0.3-0.5,0-1,0-1.5c0-0.6-0.1-1.2-0.7-1.4
	c-0.5-0.2-1,0-1.4,0.4c-0.6,0.7-1.1,1.4-1.4,2.2c-0.5,1.4-1.6,2.4-2.8,3.5c-0.3-1.9,0.8-3.6-0.6-5.3c-1.4,1.5-3.4,1.5-5.1,2.7
	c1.3,0.9,2.5-0.2,3.7,0.4c0.4,0.7,0.3,1.4,0.3,2.1c0,0.7-0.4,1.5,0.3,2.1c1.2,0.1,1.7-1.1,2.7-1.6c0.2,0.4,0.4,0.7,0.7,1.1
	c1.8-0.1,2.4-1.6,3.6-2.7c2.1,0.5,4.2-0.3,6.5-0.5c-0.3,1.1-0.6,1.9-0.7,2.7c-0.1,0.6,0.1,1.2,0.6,1.6c0.6,0.4,1.1,0,1.5-0.3
	c1.9-1.5,2.6-3.5,2.8-5.7C142.6,16.3,141.7,15.8,140.7,16.3z M130.2,19.9c-0.2,0.4-0.7,0.8-1,0.7c-0.3-0.1-0.4-0.9-0.2-1.4
	c0.2-0.4,0.7-0.7,1-0.6C130.4,18.8,130.4,19.5,130.2,19.9z M140.7,20.9c-0.4,0.7-0.6,0.9-0.9,1c-0.4,0.1-1,0.1-1.2-0.3
	c-0.3-0.3-0.1-0.7,0.1-1.5c0.2-0.6,0.4-1.3,0.9-1.5c0.2-0.1,0.3,0,0.6-0.1c0.7-0.1,0.9-0.5,1.1-0.5
	C141.6,18.2,141.3,19.7,140.7,20.9z"/>
<path class="st0" d="M93.4,51.4l-1.1,0.4c-0.1-0.8,0.5-1.5,0-2.3c-0.8,0-1.4,0.4-2.1,0.8c-1.3,0.8-2.7,1.3-4.1,1.6
	c-0.8,0.2-1.7,0.2-2.3-0.9c1.4-0.6,2-1.8,2.8-2.9c0.6-0.8,0.5-1.4-0.4-1.8c-1.8,0.2-2.3,1.8-3.2,2.9c-0.8,0.1-1.6,0-2.4-0.3
	c-2.2-0.8-2.7-1.6-2-3.9c0.8-2.9,1.3-5.8,1.8-8.8c0.1-0.7,0.4-1.4-0.3-2c-0.8,0-1.3,0.6-1.7,1.2c-2.8,3.9-3.8,8-2.2,12.7
	c0.3,1-0.1,1.7-0.7,2.4c-0.7-0.8-1.4-0.8-2.3-0.5c-2,0.8-3.9,1.6-5.9,2.3c-0.8,0.3-1.6,0.7-2.6,0.4c1-1.2,2-2.2,2.2-3.7
	c-0.8-0.5-1.5-0.2-2.2,0.3c-0.8,0.6-1.4,1.4-1.9,2.3c-0.4,0.8-1,1.1-1.8,0.6c-0.5-0.8,0.2-1.6-0.4-2.4c-0.6-0.2-1,0.1-1.5,0.3
	c-1.8,1-3.5,2-5.3,3c-0.7,0.4-1.4,0.9-2.4,0.4c-0.6-1.3,0.4-2.6-0.1-3.8c-1.4-0.2-1.7,1.3-3,1.7c1.4-2.3,1.8-4.6,2.2-6.9
	c0.4-2.3,1.6-4.4,1.3-7.1c-1.4,0.6-2,1.7-2.6,2.6c-1.5,2.6-3,5.2-4.2,7.9c-1,2.3-2.2,4.5-4.1,6.1c-0.4,0.3-0.8,0.8-1.5,0.5
	c-0.1-0.7,0.1-1.3,0.3-1.9c0.3-0.9,0.7-1.8-0.1-2.6c-0.8-0.8-1.7-0.7-2.7-0.4c-0.4,0.1-0.8,0.2-1.2,0.4c-1.2,0.5-2.4,1-3.6,1.5
	c-0.4-1.4-0.9-1.7-2.2-1.2c-0.8,0.3-1.7,0.7-2.5,1.2c-2,1.3-3.9,2.6-5.9,3.9c-0.6,0.4-1.2,0.8-2.1,0.6c1-0.8,1.6-1.7,2-2.8
	c0.5-1.1,0.3-1.7-0.6-2.4c-0.8-0.7-1.7-0.6-2.5,0c-0.9,0.6-1.5,1.4-1.8,2.5c-0.3,0.9-0.5,1.8-0.8,2.8c-2.1,0.5-4.1,0.4-6.2-0.3
	c0.1-0.8,0.3-1.4,0.4-2.1c0.1-0.9-0.2-1.7-1.1-2.1c-0.8-0.4-1.6-0.1-2.2,0.5c-1.3,1.2-1.3,2.9-0.1,4.3c0.3,0.4,0.6,0.7,0.9,1
	c-0.6,1.3-0.8,1.5-2.1,1.7c-2.1-1.2-2.7-5-1.1-7.3c1.7-2.4,3.2-4.8,4.6-7.3c1.9-3.4,3.8-6.9,4.9-10.6c0.2-0.6,0.5-1.1-0.1-1.7
	c-0.7-0.1-1.2,0.3-1.6,0.8c-0.7,0.7-1.3,1.5-1.8,2.4C7,40.4,4.9,45.9,3,51.5c-0.5,1.4-1.5,2.3-2.4,3.3C0.3,55.2-0.2,55.4,0,56
	c1,0,1.3-1.1,2.1-1.4c0.1,0.8,0.1,1.6,0.2,2.3c0.1,0.8,0.2,1.5,0.4,2.2c0.7,2.2,2.4,2.7,4.1,1c0.6-0.6,1.2-1.4,2-2.3
	c2.6,1,5.2,0.5,7.9-0.2c1.6,1.2,3,0.6,4.5-0.3c2.1-1.3,4.2-2.6,6.3-3.9c0.8-0.4,1.6-1.1,2.7-0.5c-0.4,1.3-2.1,2.1-1.5,3.8
	c1.2-0.1,1.7-1,2.1-1.8c1.4-2.5,3.8-3.4,6.4-3.5c1.3,0,1.6,0.7,1.3,1.9c-0.2,0.6-0.3,1.2-0.5,1.7c-0.1,0.5-0.1,1,0.4,1.4
	c0.5,0.4,1,0.2,1.5-0.1c0.6-0.4,1.2-0.9,1.6-1.4c2.4-2.5,3.9-5.5,5.4-8.6c1-1.9,2-3.8,2.9-5.8c-0.3,2.6-0.9,5.2-1.4,7.7
	c-0.5,2.6-2.1,4.7-2.9,7.2c2-0.5,2.4-2.8,4.1-3.5c0.3,0.7,0,1.2-0.1,1.8c-0.1,0.7-0.2,1.4,0.4,1.9c0.6,0.5,1.4,0.3,2,0
	c1.5-0.7,2.9-1.4,4.2-2.3c0.8-0.5,1.4-1.4,2.5-1.3c0.1,0.2,0.1,0.4,0.2,0.6c0.2,1.6,0.5,2,2.2,1.8c0.6,0,1.1-0.3,1.8,0
	c0.9,0.4,1.8,0.3,2.7,0c1.5-0.5,2.9-1.1,4.4-1.7c1.1-0.4,2.2-1,3.3-0.6c0.5,0.4,0.5,1,1.2,1.2c1.1-1,1.7-2.5,2.6-3.8
	c1.5,1.2,3.1,1.7,4.7,1.8c1,1.9,1.6,2.4,3.3,2.2c1-0.1,1.9-0.5,2.8-1c0.9-0.4,1.7-1.3,2.8-1.2c0.4,0.9-0.7,1.7-0.1,2.5
	c0.8,0.2,1.1-0.6,1.8-0.6c0.9,0.5,0,1.6,0.7,2.1C94.5,54.5,94.6,52.2,93.4,51.4L93.4,51.4z M84.8,47.8c0.1-0.3,0.7-0.5,1-0.2
	c0.1,0.1,0,0.4-0.1,0.6c-0.2,0.3-0.8,1-1.1,0.7C84.5,48.8,84.7,48,84.8,47.8z M8.9,38.8c0.9-1.6,1.9-3.1,2.4-3.4
	c0.1-0.1,0.3-0.2,0.5-0.1c0,0,0.3,0.1,0.5,0.7c0.3,1.4-8.5,15.2-8.5,15.2S7.7,40.9,8.9,38.8z M8.5,55.2c-1.1,0-1.6-0.8-1.3-1.9
	c0.1-0.3,0.3-0.6,0.7-0.6c0.4-0.1,0.6,0.2,0.7,0.5C8.8,53.9,8.7,54.5,8.5,55.2z M17.9,55.4c-0.8-1.4-0.2-2.8,1.1-3.2
	c0.5-0.1,0.9-0.1,1.2,0.3c0.3,0.4,0.3,0.9,0,1.3C19.6,54.6,18.9,55.1,17.9,55.4z M77.1,46c-0.5,0-0.8-2.9-0.6-5.1
	c0,0,0.1-1.2,0.7-2.7c0.5-1.1,0.8-1.5,1.3-1.6c0.3-0.1,0.7-0.2,0.9,0.1c0.2,0.2,0,0.9-0.4,2.6C78.5,41.4,77.1,46,77.1,46z"/>
<path class="st0" d="M131.9,53.4c-0.2-1.1-0.9-1.7-2-1.7c-0.7-1.5-1.6-1.1-2.6-0.4c-0.7,0.5-1.3,1.3-2.3,1.3
	c-0.2-0.7,0.6-1.4-0.1-2.1c-2.8,0.4-5.3,2.5-8.6,2c0.6-0.9,1.3-1.3,1.8-1.8c0.6-0.6,1.1-1.2,1.1-2c-0.6-0.7-1.2-0.4-1.8,0
	c-2.3,1.3-3.3,4-5.6,5.4c0,0,0,0.1,0,0.2c0.5,0.4,1,0.1,1.5-0.1c0.4-0.2,0.8-0.4,1.4-0.2c1.7,0.6,3.4,0.2,5-0.4
	c1.2-0.4,2.4-0.8,3.6-1.2c0.5,0.7,0,1.5,0.6,2c1.5,0.1,2.2-1.7,3.9-1.7c0.5,1.5,2.5,0.9,3,2.3C131.7,54.6,132.1,54.2,131.9,53.4
	L131.9,53.4z M117.3,49.7c0.3-0.2,0.8-0.6,0.8-0.5c0.1,0.1-0.3,0.7-0.8,1.1c-0.5,0.4-1.1,0.6-1.2,0.5
	C116.1,50.8,116.8,50.1,117.3,49.7z"/>
<path class="st0" d="M240.1,45.7c-0.2-0.1-0.5-0.2-0.7-0.2c-2.4-0.3-4.2,0.7-5.6,2.5c-1.3,1.5-1.6,3.4-2.5,5.1
	c-2.7-0.2-3.2,0.1-5.8,1.6c-1,0.6-2,1.4-3.3,1.2c-0.1-0.7,0.3-1,0.6-1.2c1.5-1.3,2.3-3,2.9-4.9c0.2-0.5,0.3-1-0.5-1.4
	c-1.9,0.7-2.7,2.5-4,3.9c-1.7-0.2-3.1-0.8-4.2-2.1c0.1-1.3,3-15.4,1.4-16c-0.6,0-0.9,0.4-1.2,0.8c-1.1,1.3-1.7,3-2.1,4.7
	c-0.9,3.3-1.8,6.7-0.5,10c0.9,2.1,0.2,3.9-0.6,5.7c-0.2,0.5-0.5,1-1.2,0.5c-0.1-1,1.1-1.8,0.6-2.9c-0.7-0.5-1.4-0.1-2,0.2
	c-1.1,0.6-2.2,1.2-3.4,1.5c-0.7,0.2-1.5,0.2-1.9-0.6c-0.4-0.7-0.6-1.3,0-2c0.4-0.5,0.9-1,1.3-1.6c0.5-0.8,1.4-1.4,1.3-2.9
	c0-0.1-0.1-0.2-0.2-0.1c-2.2,1.1-3.9,2.5-5.3,4.1c0,0,0,0.1,0,0.1c0.5-0.4,0.9-0.7,1.3-1c1-0.8,1.5-1.1,1.8-1
	c0.1,0.1,0.2,0.3,0.2,0.3c0.2,1-1.9,2-2.3,2.1c-0.2,0-0.2-0.2-0.4-0.3c-0.2,0-0.3,0.1-0.5,0.2c0,0.1,0.1,0.3,0.1,0.3
	c-0.3,0.9-1.4,1.3-1,2.4c0.8,0.3,1.2-0.6,1.8-0.4c1.2,1.9,1.8,2.3,3.4,1.9c1-0.2,1.9-0.8,2.8-1.3c0.4-0.2,0.8-0.6,1.3-0.2
	c0,0.2,0,0.3-0.1,0.5c-0.4,0.9-0.8,1.8,0.3,2.4c1.1,0.6,1.7-0.4,2.3-1c0.2-0.2,0.3-0.4,0.4-0.6c0.9-1,1-2.4,1.9-3.6
	c1.3,1,2.9,1,4.5,1.6c-0.2,0.5-0.3,0.8-0.4,1.2c-0.2,0.7-0.4,1.4,0.1,1.9c0.6,0.6,1.3,0.4,1.9,0.1c1.7-0.7,3.4-1.5,5.2-2.2
	c1.3-0.5,2.2,0,2.5,1.3c0.1,0.5-0.1,1.1,0.4,1.5c0.9,0,1.1-0.8,1.3-1.5c0.5-2.6,1.4-5,2.5-7.4c0.7-1.6,1.9-2,3.4-2.3
	c0.5-0.1,1,0,1.4,0c0.6-0.1,1.2-0.3,1.2-1.1C240.3,45.8,240.2,45.7,240.1,45.7L240.1,45.7z M223.8,50.2c0.4-0.2,0.9-0.5,1.1-0.3
	c0.1,0.1,0,0.3,0,0.5c-0.2,0.5-0.8,2.2-1.4,2c-0.2,0-0.4-0.2-0.5-0.9C223.1,51.1,223.3,50.6,223.8,50.2z"/>
<path class="st0" d="M172.3,49.2c-0.5-0.1-0.8,0.2-1.2,0.4c-0.3,0.2-0.5,0.7-1.2,0.7c1.5-2.9,1.7-5.9,2-8.9c0-0.2-0.2-0.2-0.3-0.1
	c-1.3,1.7-1.3,4.2-3,5.6c-1.8,1.4-2.4,3.8-4.3,5.3c-0.1,0.1-0.2,0-0.3,0c-0.5-1,0.2-2.3-0.7-3.1c0,0-0.1,0-0.1,0
	c-1.2-0.3-1.9,0.8-2.8,1l-0.1-1.1c0,0,0-0.1-0.1-0.1c-0.4-0.3-0.8-0.6-1.2-0.9c-0.9-0.6-2-0.6-2.9-1c-3.1-1.1-3.5-1.7-3.3-4.9
	c0.2-3.1-0.1-6.2-0.5-9.3c0-0.4-0.1-0.7-0.5-0.9c-1.1,0.4-1.7,1.3-1.8,2.9c-0.1,2.5-0.4,5,0,7.5c0.6,3.8-1.1,6.7-3.6,9.2
	c-0.9,0.9-1.8,1.9-2.5,3c-0.2,0.3-0.4,0.7,0.1,1.2c1.8-0.5,2.4-2.4,3.6-3.7c0.1-0.1,0.2-0.1,0.2,0c1,1,1,2.5,1.6,3.7
	c0.1,0.1,0.2,0.1,0.3,0c2.5-2.4,2.3-5.5,2.9-8.4c0-0.1,0.1-0.2,0.2-0.1c1.3,0.5,2.4,1,3.6,1.5c2.3,0.9,2.3,0.9,2.3,3
	c0,0.1,0.1,0.2,0.2,0.2c1.1-0.2,1.8-1.5,3-1.4c0.1,0,0.1,0,0.1,0.1c0.8,1,0.2,2.4,1.1,3.4c0.1,0.1,0.2,0.1,0.2,0
	c2.5-1.9,3.6-5.1,6.2-6.9c0.1-0.1,0.3,0,0.3,0.2c-0.2,2-1.6,3.8-1.3,5.9c0,0.1,0.1,0.2,0.2,0.1c0.8-0.2,1.2-0.9,1.9-0.7
	c1.1,0.4,0.3,1.9,1.3,2.4c0.1,0,0.2,0,0.2,0C173.3,54.1,173.4,50.2,172.3,49.2L172.3,49.2z M151.1,36.3c0.1,0,1.2,3.6,0,4.5
	C150.7,39.8,150.8,36.3,151.1,36.3z M150,54.5c-0.8-1.1-2.4-3.6-2.2-3.7c0.7-0.6,1.8-2,2.6-4.8c0.2,0.2,1.4,1,1.5,1.3
	C152.4,49.3,151.2,52.9,150,54.5z M151.1,44.1c-0.1-0.1-0.1-0.1-0.1-0.2c-0.1-1.1,0.6-2.8,0.9-3.6c0.3,1.4,0.3,4.5,0.3,4.5
	C152,44.8,151.3,44.3,151.1,44.1z"/>
</svg>
