<?xml version="1.0" encoding="UTF-8" standalone="no"?>
<!-- Generator: Adobe Illustrator 26.5.0, SVG Export Plug-In . SVG Version: 6.00 Build 0)  -->

<svg
   version="1.1"
   x="0px"
   y="0px"
   viewBox="0 0 1004.6 1345.5"
   style="enable-background:new 0 0 1004.6 1345.5;"
   xml:space="preserve"
   id="svg206"
   sodipodi:docname="girigoro.svg"
   inkscape:version="1.3.2 (091e20e, 2023-11-25)"
   xmlns:inkscape="http://www.inkscape.org/namespaces/inkscape"
   xmlns:sodipodi="http://sodipodi.sourceforge.net/DTD/sodipodi-0.dtd"
   xmlns="http://www.w3.org/2000/svg"
   xmlns:svg="http://www.w3.org/2000/svg"><defs
   id="defs206" /><sodipodi:namedview
   id="namedview206"
   pagecolor="#ffffff"
   bordercolor="#000000"
   borderopacity="0.25"
   inkscape:showpageshadow="2"
   inkscape:pageopacity="0.0"
   inkscape:pagecheckerboard="0"
   inkscape:deskcolor="#d1d1d1"
   inkscape:zoom="0.75420609"
   inkscape:cx="312.24887"
   inkscape:cy="678.85954"
   inkscape:window-width="2560"
   inkscape:window-height="1387"
   inkscape:window-x="0"
   inkscape:window-y="25"
   inkscape:window-maximized="1"
   inkscape:current-layer="svg206" />
<style
   type="text/css"
   id="style1">
	.st0{display:none;}
	.st1{display:inline;}
	.st2{stroke:#000000;stroke-width:0.8898;stroke-miterlimit:10;}
	.st3{fill:#EDEDED;}
	.st4{fill:#89AECF;}
	.st5{fill:#9AB87A;}
	.st6{fill:#4D4D4D;}
	.st7{fill:none;stroke:#000000;stroke-width:7;stroke-miterlimit:10;}
	.st8{fill:none;stroke:#000000;stroke-width:3.1661;stroke-miterlimit:10;}
</style>

<g
   id="Livello_2"
   style="display:inline"
   transform="translate(1.3252982,0.29466466)"
   inkscape:label="draw"
   sodipodi:insensitive="true">
	<g
   id="ghirigoro_00000008148863151080726110000002387977280620108674_"
   style="display:inline">
		
		
		<path
   class="st7"
   d="m 500.3,43.4 v 272.8 c 1.7,56.8 0.7,69.1 -16,79.6 -33.2,20.7 -46.6,16.1 -57.8,32.2 -11.5,16.5 3.8,28.2 -10.1,46 -22,28.4 -19.5,29.6 -28.5,30.5 -9.7,1 -20.1,-12.7 -33.1,-10.3 -17.2,3.2 -15.9,24.6 -23.4,27.6 -14.3,5.7 -14.2,-11.9 -29.1,-11.2 -10.5,0.5 -4.8,7.5 -23.3,10.1 -17.8,2.4 -13.8,-13 -43.5,-4.4 -15.4,4.4 -15.7,22.4 -15.5,24.4 7.4,53.1 -58.8,30.8 -55.8,76.3 1.6,24.9 52.1,34.3 49.7,85.6 -1.5,31.3 -74.8,30.7 -95.6,60.9 -25.5,36.9 13.2,174.8 86.6,191.8 18.7,4.3 65.4,-17.7 112,-69.7 33,-36.7 47.7,-36.4 67.1,-39.3 40,-6.1 96,4.2 116.5,39.2 11.7,19.9 4.7,35.8 17.6,43.2 16.4,9.4 34.8,-12.6 70.2,-18.4 37,-6.1 52,12.1 82.2,15.2 67.7,6.9 128.1,-70.7 152.4,-101.9 18.2,-23.4 73.2,-100.7 68.3,-206.9 -1,-22.4 -4.4,-79.2 -42.3,-131.6 -19.8,-27.4 -70.5,-75.8 -95.9,-66.6 -12.1,4.4 -11.4,19.4 -28.7,32.6 -25.8,19.7 -59,14 -68,12.7 -42.8,-6.4 -51.2,-28 -56.7,-35.9 -0.7,-1.1 -1.4,-2.1 -2.1,-3.1 -14.4,-22.5 -40.4,-64.2 -84.7,-9.8 -182.8,225 -12.4,388 -12.4,561 0,169.7 0.2,259.9 0,325.5"
   id="path205" />
		
	</g>
</g>
<style
   type="text/css"
   id="style1-9">
	.st0{display:none;}
	.st1{display:inline;stroke:#000000;stroke-width:0.8898;stroke-miterlimit:10;}
	.st2{fill:#EDEDED;}
	.st3{fill:#89AECF;}
	.st4{fill:#9AB87A;}
	.st5{fill:#4D4D4D;}
</style></svg>
