<?xml version="1.0" encoding="utf-8"?>

<svg version="1.1" id="Livello_1" xmlns="http://www.w3.org/2000/svg" xmlns:xlink="http://www.w3.org/1999/xlink" x="0px" y="0px"
	 viewBox="0 0 754.6 667.6" style="enable-background:new 0 0 754.6 667.6;" xml:space="preserve">
<style type="text/css">
	.st0{display:none;}
	.st1{display:inline;stroke:#000000;stroke-width:0.8898;stroke-miterlimit:10;}
	.st2{fill: white;}
	.st3{fill:#a0d8eb;}
	.st4{fill:#daf7e3;}
	.st5{fill:#4D4D4D;}
</style>
<g id="Livello_2_00000101073911736054876400000007648433737962889123_" class="st0">
	<path class="st1" d="M367.8,519.8c-18.3-2.7-59.9,12.2-102.8,14.9c-22.6,1.4-47.8,2-65.3,16.3C63.9,662.1,42.8,463.5,40.2,441.4
		c-0.5-21.3,67.4-107,64-124.1L58.4,254c-5.6-30,36.8-42.9,45.6-40.5c-4.6-31.3,26.6-28.8,52.2-39.9c10.8-7.3,23.7-18.4,33.1-9.6
		c5.1,4.7,17.2,4.7,20.1,4.2c2.7-0.5,3.2-1.6,8-13.4c2.7-6.7,6.4-7.9,9.7-10.1c6.5-4.6,10.6,1,12.1,1.4c8.5,2.3,14.9,7.6,21.7,5.9
		c7.5,1,10-9,18.4-17.8c17.4-18.4,20.4-22.2,19.7-29.7c-0.6-5.5,1.3-5.1-1.6-14.9c-1-3.3,2.6-6.5,4.5-9.6c3.1-5,7.2-3.2,16.1-4.1
		c20.3-2,21.8-21,49.6-35.6c5.8-3,18.1-5,35.6-8.2c3.8,0.1,30.7-2.5,34.7,8.8c2.6,7.4-6.4,14.2-3.1,19.4s13.4,0.2,23.5,3.8
		c12.1,4.4,16.9,18.6,22.5,34.7c13.6,39.3,75.9-0.5,77.3,2.2c52.7-1.4,80.4-43.5,116.9-0.7c15.4,18.1,60.9,149.2,66.6,168.1
		c21.7,132.9-61,174.7-64.9,184.8c-22.1,26.4-27.6,36.5-67,81.2c-22,33.9-87.1,15.8-117.3,10.1c-11-2.1-24.4-11.4-48.2-10
		c-17.8,4.6-32.2,7.7-41.9,10.6L367.8,519.8z"/>
</g>
<g id="Livello_1_00000049217459411168692530000013546976312261620393_">
	<g id="a">
		<path class="st2" d="M112.4,406.8l44.2-28.1l25,41.7l8.5-5.4l-49.8-61.3c0,0-12,7.3-13.7,8s-7.1,2.8-7.8,2.8
			S109.4,403,112.4,406.8z"/>
		<polyline class="st2" points="49.4,508 79.6,495.9 76.4,490.2 76.7,490 103.9,536.3 210.9,469.5 184.2,424.6 193.1,418.4
			243.3,479.9 212.4,502.8 88.3,580 		"/>
		<path class="st2" d="M477.4,123.4l-6.3-26.3c0,0,7.8-1.9,11.3-2.1s12.5-1,12.5-1l-0.6,25.9L477.4,123.4L477.4,123.4z"/>
		<path class="st2" d="M470,91.4c0,0,0.2-4.2-7.6-11.3s-11.1-7.9-13.3-8.2s-3.3-0.4-3.3-0.4V57.6l41.7,0.4l-1.2,29.7
			c0,0-4.5,0-7.6,1S470,91.4,470,91.4L470,91.4z"/>
		<path class="st2" d="M489.7,282.7l-17.2-12.5l-12.4,14.4l-2.8-2.3c0.1-0.1,0.1-0.2,0.1-0.2l12.5-13.8c0,0-13.4-6.6-18.7-7.7
			c-5.3-1.2-15.2-4.9-16.9-4.5c-1.7,0.4-28.2,16.8-28.2,16.8s-0.3,5-1.6,6.2c-1.3,1.2-9.4,14.1-13,16.8S380.4,306,380.4,306
			s-2.3,17.4-2.3,17.9S374,334,374,334l-5,13.1c0,0-5.3,10.1-5.5,11.9s-0.3,7.9-1.2,9.5c-0.9,1.7-5.4,9-5.4,9l6.1,10.4l40.8-10.4
			l28-6.6l-13-23.1c0,0-5.4-10.3-4.8-12.1c0.7-1.8,1.6-6.3,4.7-9.6l4.9-5.2l2.5,1.9l-4.2,4.4l-2.1,2.7c0,0-2.4,2.9-2.3,4.9
			c0.5,6.4,5.8,15.2,5.8,15.2l5,9l6.1,11.1l13.2-2.8c0,0-0.8-2.6-1.2-7.3c-0.4-4.6-0.2-6.8-0.2-6.8l3.3-0.3v8.1l2.5,6.3
			c1.2-0.7,19.7-1.9,19.7-1.9l7-24.5c0.5-1.3,1.8-4.6,3.3-6.9s2.6-11.4,4.2-14.9c1.7-3.5,3.2-20.1,4.1-23.8
			C491.2,291.4,489.7,282.7,489.7,282.7z M425.3,318.8l0.3-0.4c0,0,22-26,23.8-27.3c1.2-0.9,3.9-4.2,5.9-6.4l2.8,2.3l-30.3,33.8
			L425.3,318.8z"/>
		<path class="st2" d="M502.4,248.7l-0.6-0.1c0,0-0.2,2.1-3.5,3.7c-3.3,1.6-12.7,1.1-14.4,2.9c-2.3,2.4-6.6,3.8-7.9,5.9
			c-0.4,0.7-1.2,4.7-0.4,5.6c3.1,3.4,15.3,13.1,15.3,13.1h21.6l0.5-20.3l26.2-0.7v-3.3L502.4,248.7L502.4,248.7z"/>
		<path class="st2" d="M492.7,250.2c2-0.4,5.4-2.7,5.4-2.7l-18.5-4.5l-2.8,14.3c0,0,3.1-3.1,6.6-4.9
			C486.9,250.5,490.7,250.5,492.7,250.2L492.7,250.2z"/>
		<path class="st2" d="M511.7,214.9c4.7-2.3,10.6-5,14.9-5.3c4.2-0.3,9.2-1.6,9.2-1.6s-8-5.8-12.1-7s-18.8-2.6-18.8-2.6l-12.1,41.3
			l8.6,1.6l0.8-3.3l2.5-10C504.6,227.9,507,217.2,511.7,214.9z"/>
		<path class="st2" d="M534.6,242.9h4.5l-1.7-31.6c0,0-8.7-0.4-14.8,2.2c-6.1,2.6-11.1,4.2-13.7,10.7c-2.5,6.2-4.1,17.3-4.2,18.2
			v0.1l25.2,6.2l1.9-2.8l-8.1-23.4l2.7-1.3L534.6,242.9z"/>
		<path class="st2" d="M626.3,131.4c-0.3-0.7-1.1-3.3-1.9-5.6c0,0-8.3,2.3-10.9,4.9c-2.7,2.6-4.3,8.3-4.3,8.3s-1.9,4-3.4,7.3l-3.3-1
			c1.8-4.8,3.8-9.6,4.9-12.4c1.7-4.4,5.1-7,5.1-7l-47.3,13.7l-5.4,17.4l-2.6,1.9l5.9-19.3l-60.2,17.1l-32.8,9.1
			c0,0,6.4,5.8,10.6,9.8c3.9,3.7,14.1,9.3,15.7,10.1l0,0c0,0,2.2-2.7,3.7-3.2s2.8-1,5-1.3s6.1,0.2,7.9,0.3c1.1,0,5.5,0.2,10.7,3
			s6.8,3.5,9.2,5.1c2.1,1.4,4.9,3.6,7.6,5.4c0,0,2.4,2.4,3.4,3c2.7,1.7,9.6,4.8,12,4.6c4.1-0.4,10.5-0.9,13.8-1.8
			c5.3-1.5,11.9-4.2,13.9-6.4c1.4-1.6,2.9-2.8,4.8-8.4c1.2-3.5,2.6-7.5,3.9-11.3l3.9,1.1c-0.3,0.8-0.5,1.6-0.7,2.2
			c-1.4,4.1-4.5,10.2-4.5,10.2c-2,3.8-9,11.5-9,11.5l0,0l13.6,9.9c0,0,0.7-0.4,4.8-5c3.9-4.4,13.3-15.3,15.5-31.5
			c1-7.3,1.9-12.2,2.6-15.4c0.7-3.2,4.2-11,6.8-14.5C626.8,140.9,627.5,134.8,626.3,131.4L626.3,131.4z M604,150.3
			c-0.9,1.6-4,12.5-4,12.5s-1.7,5.7-3.2,10.4l-3.9-1.1c2.3-6.9,4.3-12.5,4.3-12.5s2-5.6,4.4-11.8l3.2,0.9
			C604.4,149.5,604.1,150,604,150.3z"/>
		<path class="st2" d="M545.1,204.1c-1.4-1.7-3.8-4-6.5-6c-2-1.4-12.6-10.3-15.6-11.5c-2.9-1.2-12.6-2.9-17-3.1
			c-4.4-0.2-6.5,3.6-6.5,3.6l0,0c0.7,0.3,10.6,5.4,15.1,6.4c4.7,1.1,9.9,1,14.9,4.3c4.9,3.3,11.1,8.8,11.2,8.9l0,0l2.6-0.8l3-0.2
			C546.4,205.9,546,205.2,545.1,204.1z"/>
		<path class="st2" d="M481.7,379.5c-3.3-3.5-11.6-4.6-18.4-6.1s-24.6,2.6-27.5,3.5c0,0,0,0.1,0,0.2c0,2.2-0.5,23.1-2.1,27.7
			c-1.7,4.8-8,10.1-10.5,12.5s-2.7,4.5-9.2,9.7s-18.4,11.9-18.4,11.9l-1.6,0.6l-1.8-2.5c4.4-2.3,10.6-5.8,16.2-10.4
			c10.8-8.9,13.6-12.6,17.2-15.5s5.2-6.6,6-8.6s1.1-15.2,1.1-15.2l0.9-9.9v-0.2l-21.2,5.2L367.9,393l5.7,10.7l23.6-12.9l0.9,1.4
			l-23.7,12.9l8.4,13.8l-5.1,3.5l-1.8-1.7c0,0-9.2,5.3-12,9.4s-1.1,8.6,0,12.3c0.8,2.7,5.7,6.7,8.4,8.7c0,0,3.4-3.8,5.9-6.3
			s7.8-5,7.8-5s1.4-0.5,3.5-1.6l1.5,2.3l-0.9,0.4c0,0-7.1,4.1-8.6,5.2s-7.6,6.1-7.6,6.1l37.1,24.2c0,0,33.8-44.6,35.4-47
			s16.7-17.6,17.8-18.2c1.1-0.6,16.5-20.7,16.5-20.7S485,382.9,481.7,379.5z"/>
		<path class="st2" d="M259.9,377.9c0,0,24.7,0.6,31.8-3c2.6-1.3,6.8-6,7.8-8.8c2.3-6.7,1.6-28.3,1.6-28.3h-39.5L259.9,377.9
			L259.9,377.9z"/>
		<polygon class="st2" points="339.2,270.1 337.9,212.1 344.6,212.1 357.9,271.2 		"/>
		<path class="st2" d="M339.5,283.7l35.3,14.8c0,0,1.9,1,3.6,0.6s13-11.1,13-11.1l7.1-11.7c0,0-6.4,3.1-14.6,3.8s-44.4-1.2-44.4-1.2
			V283.7L339.5,283.7z"/>
		<path class="st2" d="M362.2,271.9c0,0,19.7,1.1,23.1,0.8s10.3-2.6,10.3-2.6s-15-26.8-14.6-27.2s-23.1,5.1-23.1,5.1L362.2,271.9
			L362.2,271.9z"/>
		<polygon class="st2" points="355.2,243.7 379,237.1 369,208 347.5,212.1 		"/>
		<path class="st2" d="M337.9,206.7l16.4-2.2l13.2-1.6c0,0-7.6-21-13.3-29.2c-5.7-8.2-11.8-15.8-13.1-17.6s-9.5,5.4-9.5,5.4
			s5,27,5.5,36.8S337.9,206.7,337.9,206.7L337.9,206.7z"/>
		<path class="st2" d="M375.8,303.3c-0.4,0.1-33.8-13.6-33.8-13.6l-2.6-0.4l-1.6,27.4l31.6,10.1L375.8,303.3z"/>
		<path class="st2" d="M362,345c0,0,6.3-12.2,5.8-12.3s-29.9-10.1-29.9-10.1l-0.8,12.4l7.9,3.9L362,345L362,345z"/>
		<path class="st2" d="M360.1,351.1c0,0-1.2,7.4-2.2,10.1s-3.7,8.1-4.6,8.5s-14.6-27.4-14.6-27.4L360.1,351.1L360.1,351.1z"/>
		<path class="st2" d="M401.2,266.1c-0.8-1.7-8.2-11-9.8-15.2s-6.4-14.2-6.4-14.2l19.1-4.7c0,0,3.9,4.6,6.2,5.3s10,4.2,12.2,7
			s2.1,7.8,0.8,9.2s-6.5,6.2-9.4,7.4S401.2,266.1,401.2,266.1L401.2,266.1z"/>
		<path class="st2" d="M384,231.4l18.5-4l-2.3-7.1c0,0-2.4,1-5.5-2.2s-8.2-10.5-9.5-17.6s-3.3-9.3-3.3-9.3l-11.6,1.2L384,231.4
			L384,231.4z"/>
		<path class="st2" d="M400.6,183.4l-33.8,2.2c0,0-5.1-15.2-16.5-26.5c-4.9-4.8-5.8-5.7-5.8-5.7s28-2.7,32.1-2.5s16.2,0,16.2,0
			L400.6,183.4L400.6,183.4z"/>
		<path class="st2" d="M387.6,190.2c0.6,0.1,14.5-0.9,14.5-0.9s2.7,9.9,4.3,11.7s2.8,2.8,2.8,2.8l-8.6,11.1c0,0-5.8-1.7-7.1-5.3
			C392.2,205.9,387.6,190.2,387.6,190.2z"/>
		<path class="st2" d="M414.7,206.2c-0.6,0.1-6.4,9.8-6.4,10.9s-1.2,8.7,0.8,11.9s6.9,3.1,9.3,4.3s5.2,2.2,5.7,3.3s2.8-9.8,4.2-11.5
			s2.9-9.7,2.4-13s-8.4-5.8-10.3-6S416.7,205.7,414.7,206.2z"/>
		<path class="st2" d="M431.5,205.9c0,0-3.5-2-5.7-2.7s-6.3,0.5-5.2,0s10.4-9.3,11.6-9.9S431.5,205.9,431.5,205.9z"/>
		<path class="st2" d="M429.2,191.2l-17,10.9c0,0-7.6-35.2-9.8-37.8s-3-12.3-3-12.3l20,3.9L429.2,191.2L429.2,191.2z"/>
		<polygon class="st2" points="457.4,166.5 434.9,180.4 426.5,157.7 		"/>
		<path class="st2" d="M441.1,204.1c0,0,3.5-1.8,3.4-7s-1.2-12.4-2.5-13s-6.1,4.5-6.1,4.5s0.1,11.1,1.4,12S439.8,203.9,441.1,204.1z
			"/>
		<path class="st2" d="M448,209.5h-9.2c0,0-4.4,14-4.3,27.1h6.7l-0.6,14.8l26.1,9c0,0,5.8-20.3,5.8-22.9
			C472.5,235.2,448,209.5,448,209.5L448,209.5z"/>
		<path class="st2" d="M465.4,159.8l1-12.4c-11.1-3.1-20.8-5.6-31.9-8.6c-1.2-0.3-3.2-1.2-4.5-1.4c-14.7-2.3-29.3-4.7-49.1-5.2
			c0,0-7.8,0.1-12.6,0.8c-4.7,0.7-18.7,2.2-21.2,2.4s-6.9,0.7-6.9,0.7l1.4,11.5c0,0,28-3.4,37.4-3c11,0.5,26.2-1.1,37.8,2.5
			c3.2,1,6,1.8,9.3,2.8c1.3,0.4,2.9,1.2,4.2,1.6c10.4,3.4,20.2,6.9,26.8,9.1c2.8,0.9,3.3,1.4,4.7,1.8L465.4,159.8L465.4,159.8z"/>
		<path class="st2" d="M485.8,398.6l8.6-11.6l32.9,0.8l0.6,8.3c0,0-13.5,2.5-21.3,3C502.1,399.3,485.8,398.6,485.8,398.6z"/>
		<path class="st2" d="M472.5,414.2l6.8-10.3c0,0,19.8,1,25,0.8c2.6-0.1,22.9-3.4,22.9-3.4s1.3,13.2,0,19.5s-2.1,16.3-2.7,18.5
			c0,0-12.6-2.2-14.4-3.3c-1.8-1.1-16.2-9.6-20-11.1S472.5,414.2,472.5,414.2z"/>
		<path class="st2" d="M504.3,442.4c-5.2,8-5.2,14.7-5,17c0,0.3-0.3,0.6-0.6,0.4L457,432.4l9.9-13.6L504.3,442.4L504.3,442.4z"/>
		<path class="st2" d="M440.6,453.2l10.3-14.5l48.7,31.3c0,0,2.6,6.5,2.9,10.2c0.4,3.7,0.2,14-0.1,15.7
			C502,497.6,440.6,453.2,440.6,453.2L440.6,453.2z"/>
		<path class="st2" d="M421.5,481.1l16.5-21.8l62.1,42.4c0,0-0.5,6.8-1.4,8.3s-2.9,7.3-2.9,7.3l-25.2-8.7l-9.4-4.4L421.5,481.1z"/>
		<path class="st2" d="M537.5,530.3l-34.8-9.4c0,0,4.9-5.8,5.8-24.6c0.9-18.7-0.9-15.4-2-24.4s-1.8-12.7,0-17.3s2.9-11.2,2.9-11.2
			l15.4,1.8c0,0,0.6,19.1,2.4,26.1c1.8,7,7.2,13.8,8.3,25s2.4,10.5,2,23.1C537.1,532.2,537.5,530.3,537.5,530.3L537.5,530.3z"/>
		<path class="st2" d="M531.8,450.3l22,1.8v29h-14.5c0,0-6.8-17.3-6.8-20.2S531.8,450.3,531.8,450.3z"/>
		<path class="st2" d="M547.1,531.8c0,0,21.5-2.1,30.7-7.7c12.1-7.4,21.8-17.1,21.8-17.1s-8.4-3.7-16.5-2.2s-18.4,6.1-22.6,9.5
			c-4.2,3.5-10.3,11.7-11,12.8S547.1,531.8,547.1,531.8z"/>
		<path class="st2" d="M566.5,502.2c0,0-5.1-13.9-5-20.4s-1.5-19.6-1.1-20.9s0-3.9,0-3.9s11.9,3.1,20.7,3.9c8.8,0.7,12.5,2.4,17.4,0
			s5.1-3.9,5.1-3.9s-0.4,4,0,5.5s5.7,9.7,5.9,10.3s4,6.4,4.2,10.1s-2,9.9-3.1,11s-3.5,5-7.7,6.1c-4.3,1.1-14.9-0.9-22.7-1.2
			C575.7,498.7,566.5,502.2,566.5,502.2z"/>
		<path class="st2" d="M555.5,447.1c-0.4,0-23.7-1.2-23.7-1.2s2.9-32.7,2.9-31.6s0-23.7,0-23.7V387c0,0,9.7-2.4,14.3-5.5
			s10.5-6.6,11.3-7.3s4.5,0,4.5,0l-0.6,18.9c0,0-1.8,15.5-2.9,19.5s-5.1,21.8-5.3,25S555.5,447.1,555.5,447.1L555.5,447.1z"/>
		<path class="st2" d="M562.2,450.3c0,0,13.2,4.3,21.7,4.8s12.5,2,17.9-4.8s3.8-10.2,3.8-10.2s-4.7-4.1-6-8.8
			c-1.3-4.7-2.5-17.6-1.5-20.8s5-12.4,4.2-15s0.5-11.1,0.2-12.3s-0.2-2.6-0.2-2.6s-13.8-0.2-15.1,0s-13.8-4.7-13.8-5
			s-2.2-1.8-2.2-1.8s0.2,14.1-0.5,17.1s-2.4,23.8-3.5,27.8s-5.2,19.3-5,21.1S562.2,450.3,562.2,450.3L562.2,450.3z"/>
		<path class="st2" d="M607.9,380.3c0,0,1.7,9.1,0,12.7s-4,20.4-4,21.7s-0.7,10.9,0,12.6s2.6,9.4,4.7,9.9s5.9,0,7.3-2.1
			s11.1-13.4,11.6-14.4s9-15.8,9.7-17.6c0.7-1.8,5.9-9.8,6.6-12.9s2.8-7.6,2.4-8.3s-4-2.4-6.1-2.8s-11.6-0.4-14.2-0.2
			S607.9,380.3,607.9,380.3L607.9,380.3z"/>
		<path class="st2" d="M617.1,345l7.8-17.1l-18.2-7.3l-17.5-7.4c0,0-0.2,5.6-0.9,7.4s-3.5,11.9-4.4,13.1s-4.1,6.2-4.6,8.5
			s-2.1,7.8-3.5,10s-3.5,9.3-4.2,10.3c-0.7,0.9-1.7,4.7-1.7,4.7s8.3,4,9.7,4.5s12,3.8,16.3,4s8.5,0,8.5,0s-1.9-9.7-2.6-10.1
			s-4.5-0.9-4.4-1.9s2.5-5.2,2.2-6.1s-1.4-6.4-0.9-7.3c0.3-0.5,11.1,0.8,11.1,0.8s0.6-4,0.8-4.2c0.2-0.1-8.8-1.8-6.3-2.4
			c3-0.7,7.9-2.3,7.9-2.3L617.1,345L617.1,345z"/>
		<path class="st2" d="M622.3,320.7l-14.9-7.4l8.5-16.4c0,0,15.1,3.5,16.3,4s1.7,1.4,1.7,1.4s-4.7,7.4-5.7,9
			S622.3,320.7,622.3,320.7L622.3,320.7z"/>
		<path class="st2" d="M626.3,322.4l10.9-20.3c0,0,11.1,9.1,11.6,11.1s6.6,15.4,8.7,18.2c2.1,2.8,9.2,13.1,9.2,13.1L661,355
			c0,0-17.9-20.3-18.9-21.3S626.3,322.4,626.3,322.4L626.3,322.4z"/>
		<path class="st2" d="M711.5,333.8v-3.5c0,0-4-0.8-6.1-1.1s-8.3-1.5-13-5.8s-9.4-5.7-12.7-11.3s-8-9.3-11.6-9.9s-6.6-1.6-6.6-1.6
			l-10.9,7.4c0,0,8.7,11.5,9.2,12.7c0.5,1.1,7.3,13.4,8.3,14.8s4.7,6.6,7.3,9.5s6.8,5.1,6.8,5.1s13.9-9,16-9.9
			S711.5,333.8,711.5,333.8L711.5,333.8z"/>
		<path class="st2" d="M705.9,369.2c0,0,3.4-8.8,4.5-14.2c1.2-5.7,1.2-16.1,1.2-17.3S697,348.8,697,348.8s0,8.4,2.1,11.8
			C701.6,364.9,705.9,369.2,705.9,369.2z"/>
		<path class="st2" d="M704.2,370.5c0,0-2.6,6.2-3.3,8.6s-5.4,10.4-5.4,10.4s-7.1-6.4-8-8.5s-1.2-5.4-2.8-8s-5.4-6.1-6.4-9
			c-0.9-2.8,1.7-5.4,1.7-5.4l10.1-6.3l3.3-2.2c0,0,1,4,1.7,6.4C696.2,360.6,699,367.3,704.2,370.5L704.2,370.5z"/>
		<path class="st2" d="M692.6,394.7c0,0-7.3-8-8.5-9.7s-7.1-12.7-7.8-13.4s-4-4.2-4-4.2s-4.5,4.2-5.7,4.7s-5.7,2.8-8.3,3.8
			s-3.8,4.2-2.6,5.2s13.2,8.5,13.2,8.5l1.7-2.5c0,0,6.6,8.4,9.2,9.4S689.6,403.4,692.6,394.7L692.6,394.7z"/>
		<path class="st2" d="M679.7,412.2l-6.8-6.9c0,0-3.5-3.5-4.6-6.4s0-7.1,0-7.1l-15.1-10.1l-2.6,3.5c0,0-1.2,4.6-2.8,7.7
			c-1.7,3.1-9.7,20.2-10.6,21.7S627,429.4,624.9,431c-2.1,1.7-9.4,9.4-11,11.1c-1.6,1.5-9,5.7-4.8,17.2c0.3,0.9,0.7,1.9,1.2,2.9
			c6.6,13.7,8.4,21.7,8.4,21.7L679.7,412.2L679.7,412.2z"/>
		<path class="st2" d="M711.5,324.4v-20.5c0,0-1.9-3.1-4.7-3.3s-11.1-4.7-12-5.7s-3.7-5.2-3.6-8.5l0.1-3.3l-23.4,0.6l-1.2,13.1
			c0,0,8.3,2.3,11.4,5.4s12.2,13.3,14.6,15.1s11.3,7.3,13.9,7.1S711.5,324.4,711.5,324.4L711.5,324.4z"/>
		<path class="st2" d="M710.6,300.6l-1.4-9.2c0,0-5,0-8.7-1.2s-6.8-6.5-6.8-6.5s-0.2,4.5,2.4,7.7S710.6,300.6,710.6,300.6
			L710.6,300.6z"/>
		<path class="st2" d="M708.9,287.7l-1.2-19.5l-3.4-20.3l-5,0.2c0,0-0.4,5.9-2.5,7.8s-4,5.5-12.3,6.9s-19.3,4.6-23.6,4.7
			s6.6,11.9,6.6,11.9s12.7-1.4,16.8-0.9s8.6-0.5,11.5,2.4s3.3,6.4,6.1,7S708.9,287.7,708.9,287.7z"/>
		<path class="st2" d="M694.8,249.1l-32.6,3.2l-6.8,11.5c0,0,28.1-3.1,31.6-4.7S693.4,252.5,694.8,249.1z"/>
		<path class="st2" d="M703,242.9l-41.1,4.4v-3.6l-3.5-0.8v5.3l-6.4,13l-22.7-12.1l19.8-24.5l25.8-6.4c0,0,3.8,4.6,9.4,7.6
			s8.2,5.1,12.4,5.6s3.1,0,3.1,0L703,242.9L703,242.9z"/>
		<path class="st2" d="M695.6,207.6l-16.7,7.3c0,0,3,6.7,5.5,8.3s9.1,3.8,11.5,3.8h3.4L695.6,207.6L695.6,207.6z"/>
		<path class="st2" d="M693.6,199.6c0,0-17-44-18.5-46s-7-13.3-8.9-14.5s-4.8-0.9-6.2,0s-4.2,3.8-4.7,5.7s-2.1,11.7-2.1,14.2
			s2.1,25,2.1,25s1,12.4,0,20.1s-3.8,13.3-3.8,13.3s11.4-0.5,24.5-5.3C685,208.9,693.6,199.6,693.6,199.6L693.6,199.6z"/>
		<path class="st2" d="M646.5,125l-12.6,4.5c0,0,0.5,7.5,4.5,10.6s8.5,5.4,11.1,3.8c2.6-1.7,1.2-1.7,1.2-6.8
			C650.6,132.6,646.5,125,646.5,125z"/>
		<path class="st2" d="M650.6,189.3l-22.8-0.1l-9.5-3.6c0,0,2.1-10.9,2.4-12.5c0.2-1.6,1.9-9.8,2.6-12.6c0.7-2.8,9.4-17.2,9.4-17.2
			s1.7,3.3,5.4,4.5s6.4,1.9,8.4,1.7s2.6-0.2,2.6-0.2s-0.9,11.2-0.4,19c0.5,7.2,2.4,15.6,1.9,17.4
			C650.2,187.3,650.6,189.3,650.6,189.3L650.6,189.3z"/>
		<polygon class="st2" points="609.7,205 641.9,223.4 625.7,247.2 592.2,228.8 		"/>
		<polygon class="st2" points="620.7,252.3 589.5,233.6 570,257.8 592.8,281.9 601.6,274.6 		"/>
		<polygon class="st2" points="595.3,287.7 611.5,272.7 626.3,255.5 649,267.6 624.9,290.9 619.7,289.3 617.6,292.1 		"/>
		<path class="st2" d="M632,294l22.2-23.8c0,0,8.3,7.3,7.3,14.6c-0.9,7.3-0.7,12-4,14.4s-6.8,4.6-6.8,4.6s-7.8-6-9.9-7
			C638.6,295.8,632,294,632,294L632,294z"/>
		<path class="st2" d="M572.3,338.7c0-0.9,7.6-26.6,8-30s0.5-20.9-1.7-25.9s-6.1-13.2-10.9-16.7c-4.7-3.6-14.2-8.3-18.4-8.4
			s-6.6,0.1-6.6,0.1v1.2c0,0,2.3,0.7,2.8,2.1s1.4,16.9,1.4,16.9s0,2.6,1.3,2.6s8.4,0.4,10,6.2s-2.1,24.9-2.1,24.9l-1.4,16.7
			c0,0,0.9,4.2,3.5,5.2C561,334.8,572.3,338.7,572.3,338.7L572.3,338.7z"/>
		<path class="st2" d="M509.9,353.1l0.1-1.1h-3.2l2.6-8.8v-9.3h-20.8c0,0-9.4,13.7-10.9,26.9s0.7,9.9,5.3,13.9s10.8,6.1,22.6,7.1
			c11.8,0.9,21.1,1.7,38.9-4.7c9.9-3.6,16.8-14.4,20.4-19.4c3.6-5,5.1-14.2,5.1-14.2l-11.3-4.3l-0.7,1.9l-8.8-2.5l1.5-2.4l-7.8-2.5
			h-10.7l-19.1,0.1l0.2,18.9L509.9,353.1L509.9,353.1z"/>
		<polygon class="st2" points="487.9,238.3 482.2,236.6 496.6,194.1 500.8,196.7 		"/>
		<path class="st2" d="M478.3,235.8l16-44.6c0,0-14.1-8-18.1-10.8S464,168.2,464,168.2l-20.7,14.2l4.2,10.1v11.6l6,1.8L478.3,235.8
			L478.3,235.8z"/>
		<path class="st2" d="M597.3,110.8c-55.3,18.2-88.4,23.7-114.5,32.4c-1.4,0.5-4,2.3-8.7,3.3l-1.6,12.5l127.4-36.7L597.3,110.8
			L597.3,110.8z"/>
		<path class="st2" d="M717.9,240.4c-3.4-17.9-5.8-30.1-9-40.5l-8.3,4.2l9.6,37.2L717.9,240.4L717.9,240.4z"/>
		<path class="st2" d="M719.6,244.7c0.4,2,0.7,4.1,1.1,6.3c2.5,14.2,5.7,43.6,6.4,74.4l-9.3-0.4c0,0,0.4-29.7-1.8-43.8
			c-2.2-14-4.5-36-4.5-36L719.6,244.7z"/>
		<path class="st2" d="M726.3,337.7c-0.8,9.1-2.3,18-4.7,26.5c-3.2,11.5-7.7,21.1-7.7,21.1c-2.2,4.7-3.8,8.8-6.5,13l-6-5.1
			c0,0,6.7-9.1,11.1-22.1c4.4-13,6.3-33.3,6.3-33.3L726.3,337.7z"/>
		<path class="st2" d="M617.8,507.7c0.6-0.6,1.2-1.2,1.8-1.9c15.4-18.8,21.1-25.1,43.1-51.9c7.1-8.6,13.3-16,25.3-30.8
			c6.9-8.5,12.8-13.9,17-19.9l-5.8-4.1L671,431.7l-15.7,19.7l-43.2,51.5L617.8,507.7L617.8,507.7z"/>
		<path class="st2" d="M541.1,545.3c4.4,0.3,9.4,0.3,15.2-0.4c18.4-2.3,31.1-10.7,37.4-14.9c4.1-2.7,10.1-5.3,20.2-15.9l-5.6-5.5
			c0,0-16.2,14.2-25.8,19.6s-19.2,9.1-27,9.9s-12.6,0.7-12.6,0.7L541.1,545.3z"/>
		<path class="st2" d="M496.5,534.7c20.1,7.4,29.1,8.9,36.5,9.8c0.3,0,0.6,0.1,0.9,0.1l0,0l0.9-6.9l-35.6-9.9L496.5,534.7
			L496.5,534.7z"/>
		<path class="st2" d="M409.8,495.5c14.6,7.2,45,24.9,79.4,37.8l3.3-8.2c0,0-26.6-10.4-35.5-14.8c-3-1.5-41.3-22-41.3-22
			L409.8,495.5C410,495.5,409.5,495.4,409.8,495.5"/>
		<path class="st2" d="M668.5,109l-39.2,14.3l1.7,3.1l18.7-7.8l6.9,14.8c0,0,8.9-2.9,13.4,0.9c4.4,3.9,11.4,20.6,11.4,20.6
			l16.3,40.2l9.2-2.8l0,0c-2.4-7.1-4.8-13.9-8.1-21.6C683.7,135.2,668.5,109,668.5,109L668.5,109z"/>
		<path class="st2" d="M653.4,374.8l9-14.7l8.1,4.6c0,0-4.6,4.1-6.8,5.2C661.4,370.9,653.4,374.8,653.4,374.8L653.4,374.8z"/>
		<path class="st2" d="M665.2,356.1c0.7,0.7,6.6,4.6,6.6,4.6l5-6.4l-8-6.7L665.2,356.1L665.2,356.1z"/>
		<polygon class="st2" points="240.4,385 248.7,385 249.4,363.3 241.7,362.8 		"/>
		<path class="st2" d="M198.8,377.3v-17.7l40.8,2.8v5.9l-6.5-0.2v1.4l-1.7-0.2l-0.4,7.9l-3.8,0.2l-0.5,6.5c0,0-10.1-2.5-13.6-3
			C206.4,379.9,198.8,377.3,198.8,377.3L198.8,377.3z"/>
		<path class="st2" d="M562.9,257.7c0,0-5.5-3.7-10.5-5.4s-7.8-1-7.8-1l-2.2-41.7l8.7-1.1l1.4,21.5l16.2,19.7L562.9,257.7
			L562.9,257.7z"/>
		<path class="st2" d="M627.2,328.6c0,0,12.1,9.7,14.8,12.9c2.6,3.2,7.9,9.6,9.4,11.1s6.2,4.5,6.2,4.5l-7.9,19.8c0,0-4-2.1-6.2-2.1
			s-31.2-1-31.2-1l-1.9-6.5l-3.6-0.7l-2.1-2.1l-1.1-3.8l4.9-6.6l5.8,0.9l2.4-5l2.1-3.1L627.2,328.6L627.2,328.6z"/>
		<path class="st2" d="M403.8,507.7l4-7.6l36.5,19.1c0,0-12.3-1.1-16.5-1.9S403.8,507.7,403.8,507.7L403.8,507.7z"/>

			<rect x="561.2" y="204" transform="matrix(0.9624 -0.2715 0.2715 0.9624 -34.5551 162.6225)" class="st2" width="18.5" height="4.4"/>
		<path class="st2" d="M365.7,452.6c-5.7-6.9-8.1-10.1-11.6-18.1c-3.6-8-2.8-14.6-2.8-14.6s11.1-5.5,13.2-7.5s2.4-2.2,0.9-5.3
			c0.1-0.6-12.9-24.9-12.9-24.9L328,338.7h-20.5c0,0-0.3,26.1-3.2,31c-2.9,4.8-7,9-12.2,10.4c-1.9,0.5-6.6,1-11.6,1.4
			c-0.2,0-0.5,0-0.7,0.1c7.8,0.3,14.8,7.2,18.7,10.7c2.3,2.1,6.2,7,7.8,11.5c1.6,4.5,1.5,17.7,1.5,17.7s3.5,17.1,8.3,24.7
			c3.8,6,15,12.1,31,13c14.5,0.8,19.6-3.2,20.5-4c0.1-0.1,0.1-0.1,0.1-0.1L365.7,452.6z"/>
		<path class="st2" d="M371.1,457.7c0,0-0.1,0.1-0.3,0.2c-1.1,0.6-5.2,2.7-9.1,3.3c-1.1,0.2-2.7,0.4-4.5,0.5c-0.1,0-0.3,0-0.4,0
			l0.2,1.2l4.3,28.9c1.4,0.2,2.7,0.4,4,0.6c12.9,1.9,15.3,5.1,24.8,5l16.7-15.6L371.1,457.7z"/>
		<path class="st2" d="M306.1,424.1c-0.8-3.5-1.3-6.5-1.4-9c-0.2-3.8,0.7-5.8-1.5-11.5c-3-7.9-14.8-15.8-14.8-15.8
			c-1.1-1-4.2-3-7.3-3.9c-4.1-1.2-16.7,0.7-18.1,1.2l0,0c7.2-0.6,11.3,3.9,12.4,5s7.5,13.1,7.5,13.1s7.3,13.5,8,15.3
			s1.7,4.1,0.7,5.8c-1,1.7-3,1.9-3,1.9l3.2,5.9l12.8-7L306.1,424.1L306.1,424.1L306.1,424.1z"/>
		<polygon class="st3" points="304.5,424.9 304.5,425 306,424.1 		"/>
		<path class="st2" d="M338.7,129.8l0.6-24.9c0,0-10.3-13.6-12.2-13.5s-8.2-2.3-12.1,0s-14,12.5-17.7,19.4s-5.6,8.4-5.6,8.4v12.5
			c0,0,17.2,0.9,23,0.7C320.7,132.1,338.7,129.8,338.7,129.8L338.7,129.8z"/>
		<path class="st2" d="M442,0c0,0,1.7,35.3,0,49.5s-1.8,21.1-1.8,21.1L422,69.2l-1.6-64L442,0L442,0z"/>
		<path class="st2" d="M418.2,70.6c0,0-4.9-0.3-8.5,0.5c-3.7,0.8-5.4,1.9-8.6,3.4s-9.3,4.1-9.3,4.1s-0.1-26.9-1.6-34.3
			s-2-11.4-2-11.4s10.8-1.6,15.1-2s13.5-0.4,13.5-0.4L418.2,70.6L418.2,70.6z"/>
		<path class="st2" d="M360.2,43.7c0,0,6.2-4.9,8.9-5.5s14.3-3.5,14.3-3.5s3.8,15.9,3.5,24.3s1.1,20.6,1.1,20.6l-9,4.3
			C379.1,84,360.2,43.7,360.2,43.7z"/>
		<path class="st2" d="M375.7,84.6l-33.2,16.1c0,0-7.9-10.4-10.1-11.4s-3.8-2.7-3.8-2.7l20.1-11.4l-1.4-1.4L328.6,85
			c0,0-10.7-2-16.3,0.3s-14.5,13.3-14.5,13.3l-9.3-10.1c0,0,21.5-17.8,25.7-20.3s43.6-20.4,43.6-20.4L375.7,84.6z"/>
		<path class="st2" d="M625.6,85.8c-2.7-3.4-12.3-11.2-17.3-10.6S596,88.9,596,88.9l0.9,11.2c0,0,4.5-1.1,6.8-2s20.7-3.8,20.7-3.8
			l2.7-6.7C626.7,87.2,626,86.3,625.6,85.8z"/>
		<polygon class="st2" points="613,67.2 613,67.2 628.8,82.7 632.5,71.1 		"/>
		<path class="st2" d="M113,365c0,0,0.6,0.5-4.5,0s-12-6-17.9-6.3s-13.4-1.8-21.8,0.9S0,402.4,0,402.4l21.8,24l-9.6,7.8l36.2,71.5
			l24.5-9.8c0,0,2-1,0.9-2.9S46,443.9,46,443.9l59.2-36.8c0,0,1.7-1.7,3.1-10.4S113,365,113,365L113,365z"/>
		<path class="st2" d="M620.4,522.5l4.3,3.9L615,537c0,0,2.8,4.5,7.8,6.7c4.9,2.2,12.6,4,18.7,2.5c6.1-1.4,7.6-1.5,8.2-6.8
			c0.6-5.3-1.2-16.3-2.6-20c-1.4-3.7-6.3-9.8-6.3-9.8l-11.6,12.2l-4.4-4.1"/>
		<path class="st2" d="M261,436.9c-0.9-1.3-8.8-14.7-10.3-17c-1.4-2.2-7.9-18.2-7.9-18.2l2.2-0.8l-1.6-3l-0.9,0.4
			c0,0-0.2-1.7-1.1-3.3c-0.8-1.7-4.1-4.2-5.9-5.7s-18.9-5.5-21-6.3c-2.1-0.7-13.9-3.2-17-3.7s-12.9-5.2-14.9-7.2
			c-1.5-1.5-2.2-6.5-2.5-9.6c-0.1-1.3-0.2-2.6,0.2-3.9c0.7-2.6,2.2-6.7,6.4-8.5c5.4-2.2,10.4-1.1,10.4-1.1s38.9,3.8,44.5,3.8
			c6,0,5.6-4.5,5.6-4.5l0.2-11.4c0,0-58.6-2.2-65-1.8s-18.8,0.1-25.1,5.6c-6.3,5.4-13,9.9-13,9.9L213,434l44.6,5.4l3.2,4.2
			l-44.3-5.1l32.4,40.6l14-23.2l5-0.5c-0.9-3.7-1.6-6.5-1.8-6.9C265.6,447,261.9,438.2,261,436.9z"/>
	</g>
	<g id="b">
		<path class="st3" d="M244.6,390.7c-1.4,1.7-1.4,3.2-2.1,2.6c-0.7-0.6-2.5-3.2-3.4-3.5c-0.9-0.4-6.7-5-10.2-5.5
			c-3.5-0.6-13.8-3.2-18.6-4s-5.4-0.8-13.2-3.6c-7.7-2.8-11.1-8.1-11.6-10.7s-0.1-6.6,0.4-7.4s2.1-4.5,7.7-4.8
			c5.5-0.4,24.8,1.2,24.8,1.2l17.3,1.8c0,0,8.8,0.6,9.9,0.5c1.1-0.1,4.6-0.5,4.4-9.9c-0.1-9.4,0-10.4,0-10.4l-2.6-0.1l-0.2,11.4
			c0,0,0.2,4.4-5.4,4.5s-44.7-3.8-44.7-3.8s-5-1.2-10.4,1.1c-5.4,2.2-6.7,8.8-6.8,10.6c-0.1,1.8,0.8,9.8,2.8,11.8s11.8,6.7,14.9,7.2
			c3.1,0.5,14.9,2.9,17,3.7c2.1,0.7,19.2,4.8,21,6.3s5.1,4,5.9,5.7c0.8,1.7,1.1,3.3,1.1,3.3l0.9-0.4l4.9-2l0.5-8.1
			C248.7,387.9,246,389,244.6,390.7z"/>
		<path class="st3" d="M452.2,528.1c-4.9-2.1-16.3,3.3-16.3,3.3s-26.5,13-35.4,14.9s-8.4-2.1-11.7-5c-3.3-3-14.1-23.1-14.1-23.1
			l-9.3,9.5c0,0,1.9,3.8,4.9,7.3c3,3.4,8.7,17.6,8.7,17.6s3.6,8,10.1,9s10.2-1.2,10.2-1.2s55.1-24,56-25c0.1-0.1,0.2-0.3,0.3-0.5
			C456.3,533.4,456.5,530,452.2,528.1z"/>
		<path class="st3" d="M664.7,102.8c-0.5,0.7-0.4,2.2-3.2,4.4c-3.7,2.9-6.1,4-13.5,6.6s-19.5,6.5-19.5,6.5l0.9,3l39.2-14.3
			L664.7,102.8z"/>
		<path class="st3" d="M608.7,67c-2.3,0.9-14.5,14.8-14.5,14.8l1.8,7.1c0,0,7.4-13.1,12.3-13.7c5-0.6,14.6,7.2,17.3,10.6
			c0.4,0.5,1.1,1.4,1.3,1.7l1.8-4.8L613,67.2C612,66.8,610.2,66.3,608.7,67z"/>
		<path class="st3" d="M423.3,350.1c0,0-5.2-8.8-5.8-15.2c-0.2-2,2.3-4.9,2.3-4.9l2.1-2.7l4.2-4.4l-2.5-1.9l-4.9,5.2
			c-3.2,3.2-4,7.8-4.7,9.6c-0.7,1.8,4.8,12.1,4.8,12.1l13,23.1l2.6-0.8l-6.1-11.1L423.3,350.1z"/>
		<path class="st3" d="M458.2,286.9l-2.8-2.3c-2,2.2-4.7,5.6-5.9,6.4c-1.9,1.4-23.8,27.3-23.8,27.3l-0.3,0.4l2.6,1.9L458.2,286.9z"
			/>
		<path class="st3" d="M457.3,282.4l2.8,2.3l12.4-14.4l-2.6-1.8l-12.5,13.8C457.5,282.2,457.4,282.3,457.3,282.4z"/>
		<path class="st3" d="M498.1,247.4c0,0-3.4,2.3-5.4,2.7s-5.8,0.3-9.3,2.1s-6.6,4.9-6.6,4.9l2.8-14.3l-2.1-0.7c0,0-2,8.1-2.5,9.1
			s-0.7,6-0.8,7.2s-1.7,3-2.2,4.1s3.6,4.1,3.6,4.1c-0.8-0.9,0-4.9,0.4-5.6c1.2-2.1,5.6-3.6,7.9-5.9c1.8-1.8,11.1-1.3,14.4-2.9
			c3.3-1.6,3.5-3.7,3.5-3.7L498.1,247.4L498.1,247.4z"/>
		<path class="st3" d="M522.5,213.5c6.1-2.6,14.8-2.2,14.8-2.2l-1.6-3.3c0,0-5,1.3-9.2,1.6s-10.1,3-14.9,5.3s-7.1,13-7.1,13l-2.5,10
			c-0.4,2-0.7,3.3-0.7,3.3l3.2,1.1c0.1-0.9,1.7-11.9,4.2-18.2C511.4,217.7,516.4,216.1,522.5,213.5z"/>
		<path class="st3" d="M607.4,133c-1.1,2.7-3.1,7.6-4.9,12.4l3.3,1c1.5-3.3,3.4-7.3,3.4-7.3s1.6-5.7,4.3-8.3s10.9-4.9,10.9-4.9
			l-1.1-3.4l-10.8,3.5C612.4,125.9,609.1,128.6,607.4,133z"/>
		<path class="st3" d="M592.9,172.1l3.9,1.1c1.5-4.7,3.2-10.4,3.2-10.4s3.1-10.9,4-12.5c0.2-0.3,0.4-0.9,0.8-1.6l-3.2-0.9
			c-2.4,6.2-4.4,11.8-4.4,11.8S595.2,165.2,592.9,172.1z"/>
		<path class="st3" d="M590.7,188.2c0,0,3.1-6.2,4.5-10.2c0.2-0.6,0.5-1.3,0.7-2.2l-3.9-1.1c-1.3,3.8-2.7,7.8-3.9,11.3
			c-2,5.6-3.4,6.8-4.8,8.4c-2,2.2-8.6,4.9-13.9,6.4c-3.3,0.9-9.7,1.4-13.8,1.8c-2.4,0.2-9.3-2.9-12-4.6c-1-0.6-3.4-3-3.4-3
			c-2.7-1.7-5.5-4-7.6-5.4c-2.4-1.6-3.9-2.3-9.2-5.1c-5.2-2.8-9.6-3-10.7-3c-1.8-0.1-5.7-0.6-7.9-0.3c-2.2,0.3-3.5,0.8-5,1.3
			s-3.7,3.2-3.7,3.2l0,0l0,0l3.2,1.5l0,0l0,0c0,0,2.1-3.8,6.5-3.6s14.1,1.9,17,3.1c2.9,1.2,13.6,10,15.6,11.5c2.7,1.9,5.1,4.3,6.5,6
			c0.9,1.1,1.3,1.8,1.2,1.7l-3,0.2l-2.6,0.8l0,0l0,0l1.7,2.7c0,0,8.8-0.9,12.3-1.5c4.2-0.7,21.1-5.1,27.1-8.3h-0.1
			c0.1,0,0.1-0.1,0.2-0.1l0,0C581.7,199.6,588.8,192,590.7,188.2z"/>
		<path class="st3" d="M431.7,402.6c-0.8,2-2.4,5.7-6,8.6s-6.4,6.7-17.2,15.5c-5.6,4.6-11.7,8.1-16.2,10.4l1.8,2.5l1.6-0.6
			c0,0,11.9-6.7,18.4-11.9c6.5-5.2,6.7-7.3,9.2-9.7s8.8-7.7,10.5-12.5c1.6-4.6,2.1-25.7,2.1-27.9l-2.1,0.4l-0.9,10.1
			C432.8,387.4,432.5,400.6,431.7,402.6z"/>
		<path class="st3" d="M390.1,441.1l0.9-0.4l-1.5-2.3c-2.2,1-3.5,1.6-3.5,1.6s-5.3,2.5-7.8,5s-5.9,6.3-5.9,6.3l1.7,1.2
			c0,0,6.2-4.9,7.6-6.1S390.1,441.1,390.1,441.1z"/>
		<path class="st3" d="M281.1,383.8c3.1,0.9,6.3,2.9,7.3,3.9c0,0,11.7,7.9,14.8,15.8c2.2,5.7,1.3,7.7,1.5,11.5
			c0.1,2.5,0.6,5.5,1.4,9l0,0l-0.1,0.1l0.2-0.1c0.4,2,1,4.1,1.5,6.4c1.2,4.9,3.5,14.9,9.2,21c4.8,5.1,13.7,8.8,24.1,10.4
			c3.7,0.6,9.6,0.4,16.2-0.2v0.1c1.8-0.2,3.3-0.4,4.5-0.5c3.9-0.6,8-2.7,9.1-3.3l-3.1-2.6c-0.9,0.8-6.1,4.8-20.5,4
			c-16-0.9-27.3-7-31-13c-4.8-7.7-8.3-24.7-8.3-24.7s0.1-13.2-1.5-17.7s-5.5-9.4-7.8-11.5c-3.9-3.5-11-10.4-18.7-10.7
			c0.2,0,0.5,0,0.7-0.1c-0.7-0.1-1.4-0.1-2.1-0.1c-2.7,0-16.6,1.4-16.6,1.4l0.5,2.2l0.6-0.1C264.4,384.6,276.9,382.6,281.1,383.8z"
			/>
		<path class="st3" d="M196.8,165c-8.2-5.4-8.4-6-12.1-7.6c-1.1-0.5-2.3-0.6-3.9-0.7c-4.8-0.1-7.9,2.5-12.4,5
			c-3.3,1.9-7.6,4.4-12.1,5.3c-6.5,1.2-8.2-1.9-18.5-3.9c-7-1.3-14.8-2.8-22,0.9c-7.1,3.7-10.2,10.6-11,12.4
			c-4.2,9.3-0.2,14.4-3.2,24.9c-0.7,2.4-2.9,9.4-8.7,15.3c-6.9,7.2-11.5,5-23.3,12.1c-6.4,3.8-16.3,9.7-19.9,20.8
			c-0.6,1.9-2.5,8-0.5,14.9c1.5,5.1,4.5,8.1,10.5,14C76.2,294.3,77,293.6,81.4,299c4.2,5.1,9.6,11.7,12.1,21.7
			c1.6,6.6,0.4,8.3,2.7,17.2c2.1,8.1,3.6,13.5,8.5,16.9c5.3,3.7,11.7,2.9,14.9,2.5c6.5-0.8,10-3.5,23.1-12.1
			c11.2-7.4,16.9-11.1,19.4-12.1c10.6-4.1,20.5-3.8,26.5-3.7c7.5,0.2,10.5,1.4,24,1.8c7.9,0.3,10,0,11.9-0.5c4.4-1,7.2-2.7,13.7-3.7
			c3.2-0.5,5.6-0.5,7.1,0.9c1.4,1.3,0.9,2.6,2.3,3.9c1.9,1.7,5.6,1.9,7.8,0.2c2.3-1.8,2.2-5.1,2.1-7.5c-0.2-4.7-1.9-7.8-5.7-15.1
			c-3.9-7.5-3.4-9.1-5.9-11.4c-3.4-3.1-7.3-4-8.9-4.3c-2.2-0.5-3.9-0.8-4.6,0c0,0,1.6,5,5,11.7c3.9,7.6,6.1,11.8,4.6,14
			c-1.7,2.4-6.8,0.4-16.2-0.7c-9.9-1.1-10.8,0.4-23.3,0.2c-18.4-0.3-17.3-3.6-28.1-2.7c-5.8,0.5-19.5,1.6-30.4,11
			c-5.5,4.8-7.8,9.5-16,13.3c-3.5,1.6-8.5,3.9-12.4,1.8s-3.7-7.1-5.7-17.6c-2.6-13.3-4-20.5-8.7-26.5c-1.9-2.5-2.1-1.8-19-12.6
			c-14-9-18-12-20.4-17.6c-0.7-1.7-2.8-6.5-1.6-12.1c1.8-8.7,10.1-13.5,19.4-18.8c14.5-8.2,18.2-5.4,24.2-11.9
			c3.1-3.4,5.3-9.4,9.6-21.5c4.5-12.4,4.7-16.6,9.2-19.2c6.2-3.7,14.1-0.8,15.6-0.2c8.3,3.1,8.5,8.7,18.5,17.4
			c3.3,2.9,10.1,8.6,19.9,11.7c9,2.8,17.9,2.5,24.9,2.3c10.2-0.3,14.3-2,19.2,1.1c2.6,1.7,5.2,4.6,8.5,3.9c1.8-0.4,3.2-1.6,4.3-2.7
			c1.5-1.4,3.1-2.9,3-4.6c-0.2-2-2.5-2.5-2.3-3.9s2.7-1.1,3.9-3.2c0.7-1.2,0.7-2.9,0-3.9c-0.5-0.7-5.2-0.7-6.2-0.5
			c-1.1,0.3-13.6-0.6-38.7-2.3c-24.6-1.7-28-3.3-30.4-6.4c-3.2-4.2-3.8-10.3-2.1-15.1c2.8-7.6,11.1-10.1,14.2-11
			c7.7-2.3,15-0.5,17.2,0c5.6,1.4,7.2,3.3,11.9,3c1.1-0.1,6.1-0.5,9.6-4.1c2.2-2.3,1.7-3.7,4.1-8.7c2.2-4.5,3.9-8,7.3-10.3
			c5.6-3.6,12.5-1.9,13.7-1.6c5.1,1.3,4.8,3.4,11.9,5.9c4,1.4,7.3,2.6,11.2,1.6s6.4-3.6,7.5-4.8c3.8-3.9,3.6-4.9,6.6-8.5
			c1.5-1.7,4.2-4,4.2-4.4c0-0.3-1.1-1-1.1-1c-0.3,0-2.2,1.2-5.1,5c-4.8,6.4-5.5,7.8-8,9.6c-1.2,0.9-2.8,2-5,2.5
			c-3.1,0.6-5.7-0.3-11.8-3.2c-10.2-4.7-10.3-5.3-12.9-5.7c-1.3-0.2-7-1.1-12.1,2.1c-3.3,2.1-4.9,5-7.2,9c-3.3,5.9-2.4,7.6-5.5,10.8
			c-0.8,0.8-4.3,4.4-8.3,3.9C202.3,168,198.8,166.2,196.8,165L196.8,165z"/>
		<path class="st3" d="M344.7,510.2c-1.2-4.6-8.4-7.1-12.2-7.2c-3.8-0.1-21.2-1.4-26.9-2.6c-5.7-1.2-17.2-7.7-21.8-20.3
			c-4.6-12.6-2.8-16.2-5.4-23.8c-3.7-11-9.8-17.8-13.4-22.8c-3.7-5-8.5-14.2-11.3-23.2S250,399,250,399l-5,1.9l-2.2,0.8
			c0,0,6.5,15.9,7.9,18.2c1.4,2.2,9.3,15.7,10.3,17s4.6,10,5.2,11.4c0.2,0.5,0.9,3.2,1.8,6.9c1.6,6.9,3.9,17.4,4.7,24
			c1.3,10,5.3,22.2,11.6,26.4s19.2,10.5,27.6,10.4s16.8,0.7,16.9,2.2s-0.1,3.4-1.5,4.1c-1.4,0.7-7.3,5.9-11,10.1
			c-3.7,4.2-8.5,10.9-10.5,12.8c-2,1.9-8,8.5-11.1,10.6s-11,1.5-13.3,1.2s-10.1,0.8-14.9,2.4s-10.6-0.1-17-3.6s-6.6-4.4-12.4-4.1
			c-5.8,0.4-10.1,5.9-10.9,8.2c-0.7,2.4-1.3,9.9-2.9,11.3c-1.7,1.4-3.2,3.5-7.8,4.1s-6.4,2.4-7.4,3.7s-2.1,3.2-2.5,9.7
			s0.6,9.1-1.2,11s-2.6,5.7-11.7,7.6s-22.9,10.3-29.6,15.5c-6.7,5.2-7.7,7.7-12,9.9c-4.4,2.2-22.3,10.4-30.6,16.6
			c-8.3,6.3-16,14.2-16,14.2l2.2,3.9c0,0,9.1-9.3,19.5-15.7s17.9-9.9,27.1-15.2s14.6-13.9,28.8-19.6c14.2-5.7,20.8-8.8,24.1-12.3
			c3.3-3.4,3.2-6.4,4.2-13.1c1.1-6.7,0.8-8.7,4-11.1c3.2-2.4,6.6-1.9,8.6-3.3c2-1.4,6-3.9,6.4-9.2s0.8-8.8,3.7-10.7
			s5.4-1.9,13.1,1.5s11.4,5.9,17.1,5.4c5.7-0.5,10.1-3.3,12.3-3.3s11.6,1.8,15.7,0.7s12.4-7.1,20.8-15.3c8.4-8.3,9.9-12.9,15.1-17.7
			s10.4-6.1,12.2-8.5C341,517.9,345.9,514.8,344.7,510.2L344.7,510.2z"/>
		<polygon class="st3" points="494.3,191.2 496.6,194.1 482.2,236.6 478.3,235.8 		"/>
		<path class="st3" d="M235.4,251.2c-0.1-0.9-0.4-6-0.4-7.4c-0.1-4.7,3.8-8.3,4.2-8.7c2.7-2.4,4.1-1.4,5.9-3.6
			c2-2.5,2.7-6.8,0.9-9.5c-1.8-2.8-5.3-2.6-5.5-4.6c-0.1-1.1,0.9-2.1,1.7-2.6c1.5-0.8,3.2,0,5.1,0.5c0.3,0.1,7.6,1.9,10.5-1.2
			c2-2.1,1.9-6.3,0-7.9c-0.7-0.6-1.5-0.7-4.1-0.5c-7.3,0.4-11.2,0.7-11.3,0.2c-0.2-0.7-0.6-2.3-0.3-3.1c0.3-0.9,3.9-0.4,9.6-0.2
			c6.9,0.3,9.2-1.2,12.7,0.9c0.8,0.5,2.6,1.5,3.1,3.4c0.3,1.3-0.2,1.9-0.7,4.1c-0.9,4.2,0.3,5.2-0.7,6.3c-1.7,1.9-5.2-0.9-8.2,1.2
			c-2,1.3-6.5,0.5-6.7,1.3c-1,4.2,0.7,10.9-0.7,12.3c-1.2,1.2,1.2-1.2,0,0c-1.4,1.4,0.9,4.3-0.5,6.2c-1,1.2-3.3,1.8-5.8,3
			c-3.2,1.6-3.3,3.3-3.5,3.7c-0.1,0.3-0.2,5.2-0.4,6.2"/>
		<path class="st3" d="M353.4,499c-6.8-1.4-16.2-2.5-27.2-3c-14.6-0.6-18.4,0.8-24.7-3c-5.4-3.3-8.1-8-10.4-12.2
			c-6.1-10.7-3.6-13.8-7.9-26.4c-2.7-7.8-5.4-11.4-13.8-23.3c-3.5-5-6.4-12.7-7.9-17.3c-4.2-12.9-7.9-18-10.2-25.6
			c0,0,1.3,8.6,2.8,12.6s3.2,11.5,4.3,13.4s4.4,11.8,7.4,16.1s11.1,15.7,13.4,19.9s4.5,14.3,5.4,19.1s5.4,15.5,7.2,17.6
			c4.4,4.8,10.4,9,13.6,9.6c5.2,1,16.1,0.8,19.7,1.3S352.3,499.1,353.4,499"/>
		<path class="st3" d="M369.5,123.5c-6.6,0.2-26.5,4.4-26.5,4.4v-20.5c0,0,5.6,7.4,10.5,8.2c3.1,0.5,46.8,1.2,54.8,1.3l-1.4,6.7
			C407,123.6,378.9,123.2,369.5,123.5L369.5,123.5z"/>
		<path class="st3" d="M357,491.1c-1.9-0.2-11.6-2.4-28.1-1.6c-7.3,0.3-12.1,0.9-17.5-1.2c-6.7-2.7-10.7-7-12.7-9.7
			c-3.2-4.4-3.6-7-10.3-28.3c-1.7-5.3-2.5-7.9-2.9-9c-2.7-6.6-4.9-9.1-12.7-21.5c-5.6-9-6.6-11.2-7.2-12.5
			c-2.6-6.2-3.7-11.7-4.2-15.6c0,0,2.7,3.6,3.7,6.6s4.1,11.2,6.7,14.5s9.1,12.8,10.5,15.5s3.5,4.9,6.1,11.1
			c2.7,6.4,5.2,14.9,6.5,21.3c1.1,5.6,4.6,17,14.5,23c6.1,3.7,16.1,3.2,18.2,3.2s16.2-0.6,22.3,1.1C351.6,488.6,357,491.1,357,491.1
			L357,491.1z"/>
		<path class="st3" d="M480.9,134.5l-1.9-6.6c0,0,42-11.4,55.9-15.4c14.5-4.2,57.9-17.2,57.9-17.2l1.7,7.4c0,0-68.9,18.5-91.2,26.6
			C497.9,131.2,480.9,134.5,480.9,134.5L480.9,134.5z"/>
		<path class="st3" d="M675,74.3c0,0-2.4,8.5-3.7,11.1s-5,7.8-4,11c0.5,1.4,5.3,2,6.2,0.1c0.4-0.9,1.6-5.5,3.1-9.9
			c1.8-5.2,3.8-10.4,3.8-10.4L675,74.3L675,74.3z"/>
		<path class="st3" d="M653.5,519.1c-0.4-2.4-1.4-4.6-2.6-6.7c-4.1-7.3-11.3-12.6-11.3-12.6l-14.9,17.9l0.5,0.5l3.8,3.7l11.6-12.2
			c0,0,4.9,6.1,6.3,9.8c1.4,3.7,3.2,14.6,2.6,20c-0.6,5.3-2.1,5.4-8.2,6.8c-6.1,1.4-13.7-0.3-18.7-2.5c-4.9-2.2-7.8-6.7-7.8-6.7
			l9.7-10.5l-4.3-3.9l-1.8,1.8l-12.5,12.4c0,0,5.6,7,12.3,11.5c1.9,1.3,4.3,2.2,6.9,2.8c6.4,1.6,13.8,1.4,17.1,1.3
			c4.7-0.1,10.7-3,12.4-8.8S655.5,529.8,653.5,519.1z"/>
	</g>
	<g id="c">
		<polygon class="st4" points="265.9,242.9 276.8,253.4 276.2,268.2 265.2,268.2 		"/>
		<polygon class="st4" points="276.8,250.2 277.6,242.4 269,242.4 		"/>
		<polygon class="st4" points="293.6,268.9 278.8,255.5 278.8,268.2 278.8,268.7 		"/>
		<polygon class="st4" points="279.3,252.3 298,269.4 305.1,269.5 306.6,242.4 283,242.4 279.6,244.9 		"/>
		<path class="st4" d="M308.6,201.3l-21.4-0.3l0,0l-1.2,1.7c0,0-2,2.8-2,2.9l0,0l-0.9,35.7h23.6L308.6,201.3z"/>
		<polygon class="st4" points="288.4,277.4 265.2,329.2 264.7,329.2 274.1,329 304.3,303.2 304.3,277.4 		"/>
		<polygon class="st4" points="310.5,297.8 331.9,278.8 310.8,278.1 		"/>
		<polygon class="st4" points="277.6,329.1 302.3,330.4 303,307.4 		"/>
		<polygon class="st4" points="328,331 332.6,280.7 310.2,301.3 309,331 		"/>
		<polygon class="st4" points="262.7,268.3 263.1,242.6 250,242.2 245.5,244.8 244.8,262.1 250.2,268.1 		"/>
		<path class="st4" d="M244.5,283.4c0.9-0.7,2.1-1.9,3.1-3.6c1.1-1.9,1-1.6,1.9-2.4h8.5c0.2,0,0.3,0.3,0.1,0.4c0,0-3.5,3.6-5.1,5.1
			c-0.1,0.1-0.1,0.1-0.2,0.2c-1.6,1.3-8,5.4-8,5.4c-0.3,0-0.6-0.1-0.6-0.3C244.3,286.8,243.9,285.5,244.5,283.4L244.5,283.4z"/>
		<path class="st4" d="M245.6,290.6c0.3-2.7,4.3-2.1,9.8-6.8c3.4-3,3.6-4.5,5.6-6.3c0,0,24.3-0.2,23.9,0.2l-21.3,47.2
			c-0.2,0.5-0.9,0.4-1-0.1c-0.4-3.5-2-11.6-6.9-20.4C251.2,296.3,245.4,291.6,245.6,290.6L245.6,290.6z"/>
		<polygon class="st4" points="332.6,270.1 313.3,224.2 310.8,269.5 		"/>
		<path class="st4" d="M332.1,260.4l-18.6-44.5l0.3-13.6l16.4,0.3l2.1,57.7C332.3,260.5,332.2,260.5,332.1,260.4z"/>
		<polygon class="st4" points="315.2,180.2 329.9,198.4 314.7,198 315.2,180.3 		"/>
		<polygon class="st4" points="309.6,172 287.9,144.7 286.6,190.7 288.6,195.6 308.4,196.7 		"/>
		<polygon class="st4" points="293.1,146.1 310.4,168.2 310.7,148 		"/>
		<polygon class="st4" points="315,175.6 317.6,177.9 325.1,163.6 316.3,150.1 		"/>
		<polygon class="st4" points="329.6,194.5 326.3,166.4 319.1,179.7 		"/>
		<path class="st4" d="M433.7,520.8c-4.9-1.1-9.6-2.1-14.3-3.5c-7.9-2.3-15.6-6.9-26.2-9.7l-11.3,6l13.4,16.1c0,0,2.8,2.1,8.5,1.6
			S433.7,520.8,433.7,520.8z"/>
		<path class="st4" d="M328.9,159.1l9.2-5.3c0,0-7.3-5-9.2-5.4s-8.6,0-8.6,0s5.3,6.3,6.1,7.5S328.9,159.1,328.9,159.1L328.9,159.1z"
			/>
		<path class="st4" d="M634.9,85.1l-0.9,6.3c0,0,5.7-0.7,8.7-0.9s15,1.7,15,1.7L634.9,85.1z"/>
		<polygon class="st4" points="680.6,109.2 685.7,106.6 676,101.1 		"/>
		<path class="st4" d="M681.5,110.9l4.6-2.4c0,0,0.1,1.7-0.4,3.2s-1.9,3.9-1.9,3.9L681.5,110.9z"/>
		<path class="st4" d="M687.1,108.5c0,0,0.5,2.6,0,4s-2.1,3.9-2.1,3.9s10.4,20.7,13.6,27.9s3.3,8.5,4.5,9.8s2.5,1.4,6.6,1.9
			s8.3,3.9,8.3,3.9s2.5,2.4,4.6,2.6s4.8,0.4,4.8,0.4v-10.3l-5,1.4c0,0-2.1,1.1-4.7-3.2c-2.5-4.3-9.7-18.5-11.8-23.2
			c-2.3-5.2-11.1-22.6-11.1-22.6L687.1,108.5L687.1,108.5z"/>
		<path class="st4" d="M714.1,185.4l-10.9-28.6c0,0,5.6-0.1,9.3,1.8s5.3,3.9,7.3,4.5s4.3,1,6.2,1s1.2,0.1,1.2,0.1l0.5,4.1
			c0,0-5,3.5-6.2,5.1C720.4,175,714.1,185.4,714.1,185.4L714.1,185.4z"/>
		<path class="st4" d="M727.8,170.7l1.2,17.5l-12.9,3.6l-1.2-3.1c0,0,4.6-8.9,5.5-10.4C723.2,173.6,727.8,170.7,727.8,170.7z"/>
		<path class="st4" d="M719.3,200.6l12.5-3.4l6.1,37.9c0,0,0.3,2.5,0,3.1s-1.4,2.6-3.9,2.4s-4.4,0-5.9-1.9s-3.2-16.8-4.2-20.6
			S719.3,200.6,719.3,200.6L719.3,200.6z"/>
		<path class="st4" d="M728.7,243.1l11-0.7c0,0,8.1,41.8,7.7,43.8s-0.5,3.6-2,4.9s-4.7,2.2-6.6,1.4s-3.6-8.4-3.6-8.9
			S728.7,243.1,728.7,243.1L728.7,243.1z"/>
		<path class="st4" d="M749.1,299c0,0-2-2.8-3.1-3.1s-4.3-2.4-4.3-2.4s4.1-0.7,4.5-1.5s2.1-2.2,2.1-2.2L749.1,299z"/>
		<path class="st4" d="M750,302.2c0,0-3.8-4.6-5.6-5.5s-5.4-2.9-6.3-3l-0.9-0.1c0,0,3.3,6.9,4.8,10.2s3,6.6,3,6.6L750,302.2z"/>
		<path class="st4" d="M750.8,304.2l-5.4,10.5c0,0,4.1,6.3,5.4,9.7c1.4,3.4,3.8,10.2,3.8,10.2s-1.8-18.8-2.4-22.9
			S750.8,304.2,750.8,304.2z"/>
		<path class="st4" d="M753,334.6l-15.8-2.5c0,0,3.5-8.7,4.5-9.7s3.4-3.9,3.4-3.9s2.4,3.7,4.1,6.9S753,334.6,753,334.6L753,334.6z"
			/>
		<path class="st4" d="M735.1,329.9v-14.4c0,0,3.2,0.1,4.7,0.6s3.5,1.9,3.5,1.9s-3,2.7-4.1,4S735.1,329.9,735.1,329.9L735.1,329.9z"
			/>
		<path class="st4" d="M735.4,313.1c0,0,0.9-15.6,0.6-16.8s4.6,8.5,5.1,9.8c1.5,4.3,2.4,8.7,2.4,8.7l-8.2-1.4"/>
		<path class="st4" d="M747.4,343.5l-12.4-2.3c0,0-0.4,10.6-3.4,21.2s-6.9,23.3-9.9,28.3s-8,11.4-8,11.4l23.3,15.3
			c0,0-2-20.5,0-34.1s6-28.9,7.3-32.1C745.7,348.2,747.4,343.5,747.4,343.5L747.4,343.5z"/>
		<path class="st4" d="M711.5,408.1l-18.9,21.2c0,0,7.8,7.3,8.7,8.1s7.2,1.1,8.6,1s16.8,0.7,20.7-1.6s7.6-9,7.6-9L711.5,408.1z"/>
		<polygon class="st4" points="692.6,438.4 689.6,436.1 642.4,493 644.8,494.9 		"/>
		<polygon class="st4" points="639.6,499.8 637.8,498.3 623.4,516.5 624.7,517.7 		"/>
		<path class="st4" d="M620.4,522.5l-1.4-1.3c0,0-6.1,6.3-10.4,9.9s-7.1,7.6-17.9,13s-16,7.6-20.5,9.3c-2.9,1.1-6.8,2.5-6.8,2.5
			l2.5,4c0,0,12-2.7,15.5-4.1s17-9.5,18-10.3s9.5-5.7,9.5-5.7l-2.7-3.1L620.4,522.5L620.4,522.5z"/>
		<path class="st4" d="M558.9,557.1c0,0-4.9,0.5-8.9,0.5s-11.9-0.5-11.9-0.5l-6.9,28.1l2.7,2.3l26.4-9.1c0,0,0.5-8.1,0-11.5
			S558.9,557.1,558.9,557.1L558.9,557.1z"/>
		<path class="st4" d="M530.7,555.9l-15.1-5.3c0,0,0.6,3.4,0,7.4s-6.2,25.4-6.2,25.4l13,3L530.7,555.9L530.7,555.9z"/>
		<path class="st4" d="M510.7,557.7l1.7-7.8l-19.5-6.2l-2.2,4.9c0,0,12.5,4.1,14.7,5.3S510.7,557.7,510.7,557.7L510.7,557.7z"/>
		<path class="st4" d="M487,547.1l1.9-5.4l-13.6-4.9c0,0-1.3,3-1.3,3.7s1,2.7,2.7,3.2S487,547.1,487,547.1L487,547.1z"/>
		<path class="st4" d="M470,542c0,0,2.4,1.1,2.7,0s0.8-3.8,0-4.8s-13.6-6.3-13.6-6.3l-0.3,7.2L470,542L470,542z"/>
		<path class="st4" d="M79.5,485.3l-22.3-38.7l43-27.6c0.4-0.2,0.9-0.2,1.2,0.2l2.5,2.9c0.2,0.2,0.5,0.3,0.7,0.1l7.1-4.5
			c0.2-0.1,0.3-0.4,0.1-0.6l-4.4-6.8l-56,35.2l24.3,41.9L79.5,485.3z"/>

			<rect x="150.9" y="389.3" transform="matrix(0.8474 -0.5309 0.5309 0.8474 -188.2945 143.8876)" class="st4" width="10.6" height="20.5"/>

			<rect x="140.2" y="395.6" transform="matrix(0.8474 -0.5309 0.5309 0.8474 -193.2733 139.1683)" class="st4" width="10.6" height="20.5"/>
		<polygon class="st4" points="127.5,405.4 133.9,401.5 144.8,418.8 135.8,424.5 126.9,410.4 		"/>

			<rect x="119.4" y="413.2" transform="matrix(0.8562 -0.5167 0.5167 0.8562 -199.5643 124.9757)" class="st4" width="10.6" height="15.5"/>
		<polygon class="st4" points="173.2,427.2 168.9,430 158.3,413.1 167.3,407.5 175.2,420 		"/>

			<rect x="152.2" y="415" transform="matrix(0.8474 -0.5309 0.5309 0.8474 -201.577 148.4554)" class="st4" width="10.6" height="19.9"/>

			<rect x="141.2" y="421.4" transform="matrix(0.8474 -0.5309 0.5309 0.8474 -206.6543 143.5871)" class="st4" width="10.6" height="19.9"/>

			<rect x="164.1" y="434.6" transform="matrix(0.8562 -0.5167 0.5167 0.8562 -205.8998 151.6297)" class="st4" width="10.6" height="22.1"/>

			<rect x="177.4" y="455.5" transform="matrix(0.8562 -0.5167 0.5167 0.8562 -215.1811 161.6211)" class="st4" width="10.6" height="23.6"/>

			<rect x="166.3" y="461.6" transform="matrix(0.8562 -0.5167 0.5167 0.8562 -219.9251 156.749)" class="st4" width="10.6" height="23.6"/>

			<rect x="153.5" y="441" transform="matrix(0.8562 -0.5167 0.5167 0.8562 -210.7317 147.0689)" class="st4" width="10.6" height="22.1"/>

			<rect x="187.8" y="449.2" transform="matrix(0.8562 -0.5167 0.5167 0.8562 -210.4248 166.0789)" class="st4" width="10.6" height="23.6"/>

			<rect x="155.4" y="468.8" transform="matrix(0.8562 -0.5167 0.5167 0.8562 -225.2154 152.1565)" class="st4" width="10.6" height="23.6"/>
		<path class="st4" d="M140.2,447.7l5.1-3.1L134.7,427l-9.1,5.5l7.6,12.6c0.5-0.1,1.1-0.2,1.6-0.2C137,445,139,446.1,140.2,447.7z"
			/>
		<path class="st4" d="M139.8,456.2l9,14.9l9.1-5.5L147.2,448l-5.7,3.5c0,0.1,0,0.2,0,0.3C141.5,453.4,140.8,455,139.8,456.2z"/>
		<path class="st4" d="M130.4,446.7l-17-28.1l-9.1,5.5l19.7,32.7l4.4-2.7c-0.3-0.7-0.4-1.5-0.4-2.4
			C128.1,449.7,129,447.9,130.4,446.7z"/>
		<path class="st4" d="M134.8,458.4c-1.8,0-3.4-0.7-4.6-1.8l-4.6,2.8l21.2,35.1l9.1-5.5l-18.7-31
			C136.4,458.3,135.6,458.4,134.8,458.4z"/>

			<rect x="91.9" y="424" transform="matrix(0.8562 -0.5167 0.5167 0.8562 -210.1236 113.6602)" class="st4" width="14.4" height="20.5"/>

			<rect x="103.8" y="443.2" transform="matrix(0.8562 -0.5167 0.5167 0.8562 -218.3349 122.5734)" class="st4" width="14.4" height="20.5"/>

			<rect x="116.5" y="463.1" transform="matrix(0.8562 -0.5167 0.5167 0.8562 -227.3537 132.1574)" class="st4" width="14.4" height="22.7"/>

			<rect x="129.4" y="484.5" transform="matrix(0.8562 -0.5167 0.5167 0.8562 -236.6678 141.9352)" class="st4" width="14.4" height="23.1"/>

			<rect x="77.5" y="432.7" transform="matrix(0.8562 -0.5167 0.5167 0.8562 -216.6904 107.4743)" class="st4" width="14.4" height="20.5"/>

			<rect x="89.1" y="452" transform="matrix(0.8562 -0.5167 0.5167 0.8562 -224.9911 116.2403)" class="st4" width="14.4" height="20.5"/>

			<rect x="101.8" y="472" transform="matrix(0.8562 -0.5167 0.5167 0.8562 -234.069 125.8348)" class="st4" width="14.4" height="22.7"/>

			<rect x="114.8" y="493.5" transform="matrix(0.8562 -0.5167 0.5167 0.8562 -243.3103 135.6459)" class="st4" width="14.4" height="22.7"/>

			<rect x="100.3" y="502.6" transform="matrix(0.8562 -0.5167 0.5167 0.8562 -250.0957 129.4661)" class="st4" width="14.4" height="22.7"/>

			<rect x="62.8" y="441.5" transform="matrix(0.8562 -0.5167 0.5167 0.8562 -223.3464 101.1465)" class="st4" width="14.4" height="20.5"/>
		<path class="st4" d="M85.3,480.9l7.8-4.7l-10.6-17.6l-12.3,7.5l8.4,13.9c0.8-0.4,1.7-0.7,2.7-0.7
			C82.8,479.3,84.2,479.9,85.3,480.9z"/>
		<path class="st4" d="M106.4,498.3l-11.7-19.4l-7.9,4.7c0.1,0.5,0.2,1,0.2,1.5c0,2-1,3.7-2.5,4.8l9.5,15.8L106.4,498.3L106.4,498.3
			z"/>
		<path class="st4" d="M117.9,414.4l4.2-2.4c2.7-1.5,3.9-5.3,2.6-8.5l31.1-19.8l23.1,38.6l2.8-1.9l-25-41.7l-44.2,28.1l4.7,7.4
			C117.3,414.4,117.6,414.5,117.9,414.4L117.9,414.4z"/>
		<polygon class="st4" points="184.2,424.6 180.5,426.9 205.6,468.9 106,531.3 81.2,488.3 77.5,490.5 104.4,537 211.5,470.1 		"/>
		<polygon class="st4" points="180.5,429.9 174.9,429.9 169.9,432.9 181.4,451.8 190.4,446.3 		"/>
		<polygon class="st4" points="687.8,104.9 686.6,105.7 673,97 674.4,93.2 		"/>
		<path class="st4" d="M409.2,123.9c0,0,1.5-8.1,3.3-8.5s3.9-1.8,3.9-1.8s21.9-26.5,25.6-30.1s8-3.5,11.5-3.5s5,3.9,8.9,8.1
			s15.1,46.5,15.1,46.5s-11.7-0.5-13.1-0.7s-11.7-2.5-19-4.2s-20.7-3.9-27.7-4.8S409.2,123.9,409.2,123.9"/>
		<path class="st4" d="M372.9,116.4c16.1,0.2,35.5,0.5,35.5,0.5l1.4-5.7h4.5L442,80.1c0,0-8.3-11.9-43.6,1.5S356,101.4,351,101.7
			s-4.7,2.8-4.7,2.8s7.5,7.1,13.3,7.6s13.3-0.5,13.3-0.5L372.9,116.4L372.9,116.4z"/>
		<path class="st4" d="M621,104.1c-9,1.8-13.6,3.3-13.6,3.3c-2.2,0.8-4.4,1.5-6.6,2.2l2.3,10.7l16.5-5.4
			C619.7,114.9,621,104.1,621,104.1z"/>
		<path class="st4" d="M294.5,141.4c1.2-1.7,7-3.1,16.2-2.4l0.2,4.1C309.7,142.9,294.5,141.4,294.5,141.4L294.5,141.4z"/>
		<path class="st4" d="M336.8,148.3l-0.6-11.9c-3.4,0.1-10.3,3.9-14.5,5.9C321.7,142.2,332.6,145.1,336.8,148.3z"/>
		<polygon class="st4" points="571.3,245.4 584.9,226.9 583.1,225.2 570.5,234.3 		"/>
		<polygon class="st4" points="400.6,506.9 393.5,505.7 407.5,496 		"/>
		<path class="st4" d="M661.5,107.2c2.8-2.2,2.7-3.7,3.2-4.4c-0.9-3.6-6.6-2.6-14-2.7c-5.6-0.1-16.8,1.7-22.9,2.7
			c0,0-1.1,9.7-1,10.5s1.7,7,1.7,7s12.1-3.9,19.5-6.5S657.8,110.1,661.5,107.2z"/>
		<path class="st4" d="M388.8,541.3c3.3,3,2.7,7,11.7,5s35.4-14.9,35.4-14.9s11.4-5.4,16.3-3.3c4.3,1.8,4.1,5.3,3.4,6.8
			c0.8-1.4,3.1-5.5,1.3-6.2c-0.8-0.4-6.9-4.2-9.9-4.2s-9.9-0.1-13.4,1.2c-3.5,1.2-27.2,11.9-29.5,11.9s-8.8,2.3-15.9-7.1
			c-7-9.4-10.7-14.7-10.7-14.7l-2.9,2.5C374.8,518.2,385.6,538.4,388.8,541.3z"/>
		<path class="st4" d="M262.5,388.2c0,0,1.2,0,1.8,0.4s10.2,7.5,13.6,12.4s1.9,7.1,1.9,7.1s-3,1.3-5.2-0.4s-4.8-3.2-8.4-9.9
			C262.6,391.1,262,388.7,262.5,388.2L262.5,388.2z"/>
		<path class="st4" d="M281.7,409.7c0.7-0.6,2.6,2.3,2.6,2.3s-0.4,1.7,0.2,2.3s2.2,1,2.2,2s0.1,2.4-0.6,2.4s-2.2,0.2-3.1-0.9
			s-2.1-3.6-2.2-4.5S281.2,410.1,281.7,409.7z"/>
		<path class="st4" d="M357.1,462.9l-0.2-1.2c0.1,0,0.3,0,0.4,0v-0.1c-6.7,0.6-12.5,0.8-16.2,0.2c-10.4-1.7-19.2-5.3-24.1-10.4
			c-5.8-6.1-8-16.1-9.2-21c-0.6-2.2-1.1-4.4-1.5-6.4l-0.2,0.1l-1.5,0.8l0,0l-12.6,6.9c-0.1,0-0.2,0-0.2-0.1l-3.2-5.7
			c0,0-2-3.4-2.1-3.8s-5.1-4.7-5.5-5.2s-1.9-4.1-2.1-5.3c-0.1-1.2-2.7-2.3-3.9-2.7c-0.9-0.3-3.2-1.6-4.2-2.2
			c-0.2-0.1-0.3,0.1-0.2,0.2c0.6,1.3,2.2,4.6,3.3,6.4c1.4,2.3,9.2,12.7,10.6,15.4c1.4,2.7,4.6,7.9,4.7,8.1l0,0
			c1.9,4.5,5.3,13,5.7,16.8c0.5,5.3,6.6,20.6,10.8,25.4c4.2,4.8,16.4,5.6,18.6,6s16.6-0.7,22.9,0.2c7.1,1,12.7,4.9,14.1,6
			c0.1,0.1,0.3,0,0.3-0.2L357.1,462.9L357.1,462.9z"/>
	</g>
	<g id="d">
		<polygon class="st5" points="262,239.8 262,242.1 269.2,242.3 269.2,240.2 279.1,240.2 279.1,235.1 269.2,235.1 269.2,232.5
			262,232.5 262,234.5 252.6,234.5 252.6,239.7 		"/>
		<rect x="277" y="220.2" class="st5" width="4.7" height="12.9"/>
		<rect x="277.5" y="174.9" class="st5" width="5.8" height="14.3"/>
		<rect x="257.2" y="174.6" class="st5" width="15" height="7.4"/>
		<polygon class="st5" points="284.3,172.7 284.3,149.6 279.5,149.6 279.5,168.5 265.9,168.5 262.6,161.9 258.9,163.8 263.4,172.7
					"/>
		<polygon class="st5" points="285.9,255.3 285.9,251.1 293.9,251.1 293.9,259.4 289.9,259.4 289.9,255.4 		"/>
		<polygon class="st5" points="288.4,289.5 292.3,289.5 292.3,297.5 284,297.5 284,293.5 288.3,293.5 		"/>
		<path class="st5" d="M587.9,305.2v-11.9h16.2v2.5c0,0,3.5,0.3,3.6,2.9s-2.9,3.3-2.9,3.3v3.1h-16.9L587.9,305.2L587.9,305.2z"/>
		<path class="st5" d="M545.8,493.7c0,0,0,1-0.6,1.2s-4.7-1.7-4.7-1.7l-0.8-2.4l1.2-3.3c0,0,3.7-2.1,4.4-1.9s0.6,1.2,0.6,1.2
			s4.8-2.3,6-2.2s5.7,2.3,5.8,4.3s-2.5,5.8-5.7,5.9C548.8,495,545.8,493.7,545.8,493.7L545.8,493.7z"/>
		<path id="e" class="st5" d="M552.4,288.3l-1.7-1.2v-3l-1.5-0.9l-1.6,0.4l-0.5,1.1l-2.9-0.6v-4.4h-0.8V274l-1.2-3.1h-5.8v-9.4h-7.2
			v2.6h-8.1l-5.4,2.9l-0.2,4l0.5,11.9l-6.5,0.5l0.2,5.2l-2.6,0.2l0.4,6.8l2.7-0.1l0.2,3.7l4.8-0.2l0.4,6.4l6.9-0.6l-0.4-7.1
			l11.4-0.8l0.3,3l6.8-0.4l-0.1-2.8l3.6-0.3l1.4,1.6l1.6,0.2l2.1-2.9h1.5l1.1-1.4l-0.4-2.2l1.1-1.5L552.4,288.3L552.4,288.3z
			 M535.4,281.1h-4.7l-1.1,1.2l0.2,2.2l-8.4,0.5l-0.2-2.3l-2.2,0.1l-0.5-8.8l16.9,0.3V281.1z"/>
		<rect x="251.8" y="219.6" class="st5" width="4.7" height="12.9"/>

			<rect x="262.9" y="150.8" transform="matrix(0.8086 -0.5883 0.5883 0.8086 -38.5469 187.6618)" class="st5" width="12.6" height="4.6"/>
		<polygon class="st5" points="279.8,193 279.8,195 275.4,195 275.4,198.3 279.6,198.3 279.6,200.4 282.8,200.4 282.8,193 		"/>
		<polygon id="f" class="st5" points="242.5,257.7 242.5,251.2 225.7,251.2 225.7,257.8 224.4,257.8 224.4,265.7 222.4,265.7
			222.4,275.8 224.4,275.8 224.4,284 226.2,284 226.2,290.3 242.5,290.3 242.5,283.7 231.9,283.7 231.9,275.8 232.8,275.8
			232.8,265.7 231.9,265.7 231.9,257.7 		"/>
		<polygon class="st5" points="646.7,199.3 643.6,198.6 644.2,195.6 642.3,195.2 642.4,194.4 638.9,193.7 638.7,194.5 635.6,193.9
			635.7,193 632.2,192.4 632.1,193.2 628.9,192.6 629.1,191.8 625.6,191.1 625.4,191.9 623.5,191.5 622.9,194.2 621.9,194
			621.1,197.6 622.2,197.8 621.6,201 623.5,201.3 623.4,202.3 626.9,202.9 627.1,202 630.2,202.7 630,203.5 633.5,204.2
			633.7,203.3 636.9,204 636.7,204.9 640.2,205.6 640.4,204.7 642.3,205 642.9,202.3 645.9,202.9 		"/>
		<path class="st5" d="M583.5,215.3c-1-1.4-2.3-0.6-2.3-0.6l-1.8,1.1l-1.6-2.8l-21.1,13.6l5.3,9.2l0.5-0.3l0,0l0,0l20.5-13.3
			l-1.8-3.2l2.2-1.4C583.5,217.6,584.5,216.7,583.5,215.3z"/>

			<rect x="560.5" y="224.1" transform="matrix(0.8432 -0.5376 0.5376 0.8432 -35.8053 337.5208)" class="st5" width="0.4" height="12.1"/>

			<rect x="562.9" y="222.6" transform="matrix(0.8432 -0.5376 0.5376 0.8432 -34.6197 338.5712)" class="st5" width="0.4" height="12.1"/>

			<rect x="565.1" y="221.3" transform="matrix(0.8432 -0.5376 0.5376 0.8432 -33.5841 339.5534)" class="st5" width="0.4" height="12.1"/>

			<rect x="567.6" y="219.6" transform="matrix(0.8432 -0.5376 0.5376 0.8432 -32.2725 340.6286)" class="st5" width="0.4" height="12.1"/>

			<rect x="570.2" y="218" transform="matrix(0.8432 -0.5376 0.5376 0.8432 -31.0091 341.7784)" class="st5" width="0.4" height="12.1"/>

			<rect x="572.5" y="216.5" transform="matrix(0.8432 -0.5376 0.5376 0.8432 -29.8366 342.7779)" class="st5" width="0.4" height="12.1"/>

			<rect x="578.8" y="212.4" transform="matrix(0.8432 -0.5376 0.5376 0.8432 -26.6546 345.532)" class="st5" width="0.4" height="12.1"/>

			<rect x="576.8" y="213.7" transform="matrix(0.8432 -0.5376 0.5376 0.8432 -27.6577 344.6533)" class="st5" width="0.4" height="12.1"/>

			<rect x="574.7" y="215.1" transform="matrix(0.8432 -0.5376 0.5376 0.8432 -28.743 343.7349)" class="st5" width="0.4" height="12.1"/>
	</g>
</g>
</svg>
