<?xml version="1.0" encoding="utf-8"?>
<!-- Generator: Adobe Illustrator 16.0.3, SVG Export Plug-In . SVG Version: 6.00 Build 0)  -->
<!DOCTYPE svg PUBLIC "-//W3C//DTD SVG 1.1//EN" "http://www.w3.org/Graphics/SVG/1.1/DTD/svg11.dtd">
<svg version="1.1" id="Ebene_1" xmlns="http://www.w3.org/2000/svg" xmlns:xlink="http://www.w3.org/1999/xlink" x="0px" y="0px"
	 width="369px" height="97px" viewBox="0 -6.917 369 97" enable-background="new 0 -6.917 369 97" xml:space="preserve">
<path fill="#622767" d="M121.132,27.042c-3.995,0-5.247-2.093-5.247-4.562V11.374h2.545v10.35c0,2.36,0.833,3.138,2.7,3.138
	c1.843,0,2.742-1.09,2.742-3.138v-10.35h2.523v11.084C126.397,25.285,124.467,27.042,121.132,27.042"/>
<path fill="#622767" d="M140.624,26.776l-3.4-7.234c-0.813-1.715-1.647-3.651-1.934-4.563l-0.064,0.066
	c0.11,1.291,0.132,2.917,0.153,4.273l0.089,7.458h-2.481V11.374h2.854l3.688,7.522c0.703,1.425,1.361,3.25,1.558,3.962l0.065-0.066
	c-0.065-0.78-0.22-2.983-0.22-4.385l-0.043-7.034h2.392v15.404H140.624z"/>
<rect x="149.977" y="11.374" fill="#622767" width="2.588" height="15.402"/>
<path fill="#622767" d="M164.75,26.842h-2.35l-5.115-15.469h2.768l2.743,8.726c0.613,1.957,0.788,3.093,0.788,3.093h0.046
	c0,0,0.176-0.936,0.922-3.229l2.788-8.592h2.634L164.75,26.842z"/>
<polygon fill="#622767" points="174.694,26.776 174.694,11.374 183.121,11.374 182.793,13.465 177.218,13.465 177.218,17.672 
	181.894,17.672 181.894,19.787 177.261,19.787 177.261,24.595 183.342,24.595 183.342,26.776 "/>
<path fill="#622767" d="M192.694,13.443h-1.383v4.874h1.293c1.318,0,2.021-0.178,2.481-0.645c0.416-0.422,0.678-1.068,0.678-1.87
	C195.763,14.245,194.93,13.443,192.694,13.443 M196.205,26.776l-1.317-2.382c-1.053-1.892-1.756-2.961-2.59-3.807
	c-0.284-0.289-0.505-0.443-0.986-0.467v6.656h-2.481V11.374h4.633c3.399,0,4.938,2.003,4.938,4.408c0,2.202-1.406,4.228-3.775,4.228
	c0.549,0.291,1.559,1.78,2.349,3.071l2.238,3.695H196.205z"/>
<path fill="#622767" d="M208.803,27.065c-1.731,0-3.489-0.469-4.98-1.379l0.966-1.96c1.36,0.801,2.567,1.269,4.103,1.269
	c1.865,0,2.984-0.912,2.984-2.448c0-1.135-0.701-1.847-2.26-2.293l-1.624-0.468c-1.383-0.4-2.372-0.981-2.941-1.848
	c-0.416-0.623-0.635-1.356-0.635-2.248c0-2.714,2.106-4.563,5.155-4.563c1.734,0,3.469,0.511,4.807,1.468l-1.139,1.804
	c-1.407-0.846-2.373-1.18-3.58-1.18c-1.493,0-2.479,0.823-2.479,2.093c0,0.957,0.524,1.446,2.019,1.891l1.798,0.534
	c2.196,0.646,3.731,2.071,3.731,4.386C214.728,24.684,212.692,27.065,208.803,27.065"/>
<rect x="220.659" y="11.374" fill="#622767" width="2.591" height="15.402"/>
<polygon fill="#622767" points="238.702,13.509 234.882,13.509 234.882,26.776 232.359,26.776 232.359,13.509 228.518,13.509 
	228.518,11.374 239.03,11.374 "/>
<path fill="#622767" d="M249.698,10.749c-0.813,0-1.469-0.712-1.469-1.556c0-0.869,0.658-1.558,1.469-1.558
	c0.813,0,1.471,0.69,1.471,1.558C251.168,10.038,250.51,10.749,249.698,10.749 M247.351,13.912h-0.023c0,0-1.559,5.653-1.909,6.676
	h3.729C248.996,20.254,247.458,14.513,247.351,13.912 M245.111,10.749c-0.812,0-1.468-0.712-1.468-1.556
	c0-0.869,0.656-1.558,1.468-1.558s1.473,0.69,1.473,1.558C246.583,10.038,245.922,10.749,245.111,10.749 M250.949,26.776
	l-1.228-4.052h-4.917l-1.228,4.052h-2.613l4.981-15.425h2.921l4.85,15.425H250.949z"/>
<polygon fill="#622767" points="265.942,13.509 262.124,13.509 262.124,26.776 259.598,26.776 259.598,13.509 255.761,13.509 
	255.761,11.374 266.272,11.374 "/>
<path fill="#622767" d="M274.769,27.065c-1.733,0-3.487-0.469-4.983-1.379l0.968-1.96c1.359,0.801,2.567,1.269,4.104,1.269
	c1.864,0,2.983-0.912,2.983-2.448c0-1.135-0.702-1.847-2.259-2.293l-1.624-0.468c-1.386-0.4-2.371-0.981-2.942-1.848
	c-0.417-0.623-0.635-1.356-0.635-2.248c0-2.714,2.107-4.563,5.154-4.563c1.734,0,3.468,0.511,4.809,1.468l-1.142,1.804
	c-1.404-0.846-2.371-1.18-3.579-1.18c-1.492,0-2.479,0.823-2.479,2.093c0,0.957,0.527,1.446,2.02,1.891l1.799,0.534
	c2.194,0.646,3.729,2.071,3.729,4.386C280.694,24.684,278.655,27.065,274.769,27.065"/>
<path fill="#622767" d="M121.987,52.207c-2.128,0-3.775-0.691-4.96-2.184c-1.164-1.445-1.689-3.181-1.689-5.606
	c0-3.16,0.944-5.365,2.852-6.811c1.096-0.847,2.283-1.202,3.751-1.202c1.734,0,3.271,0.535,4.522,1.625l-1.274,1.602
	c-1.052-0.823-2.04-1.18-3.203-1.18c-2.808,0-3.841,2.494-3.841,6.096c0,2.16,0.394,3.674,1.118,4.543
	c0.615,0.734,1.711,1.155,2.877,1.155c0.788,0,1.446-0.176,2.019-0.488V45.75h-2.59l-0.353-2.093h5.511v7.256
	C125.346,51.76,123.677,52.207,121.987,52.207"/>
<polygon fill="#622767" points="132.437,52.005 132.437,36.604 140.865,36.604 140.536,38.697 134.959,38.697 134.959,42.904 
	139.636,42.904 139.636,45.019 135.006,45.019 135.006,49.825 141.085,49.825 141.085,52.005 "/>
<path fill="#622767" d="M149.798,52.296c-1.73,0-3.487-0.467-4.981-1.38l0.968-1.96c1.358,0.804,2.567,1.27,4.104,1.27
	c1.864,0,2.986-0.913,2.986-2.448c0-1.135-0.703-1.848-2.263-2.294l-1.622-0.466c-1.385-0.401-2.372-0.98-2.941-1.848
	c-0.417-0.623-0.636-1.357-0.636-2.249c0-2.715,2.107-4.563,5.157-4.563c1.731,0,3.468,0.514,4.806,1.47l-1.141,1.804
	c-1.405-0.847-2.371-1.181-3.578-1.181c-1.494,0-2.48,0.823-2.48,2.093c0,0.956,0.526,1.447,2.02,1.892l1.799,0.534
	c2.194,0.645,3.731,2.067,3.731,4.385C155.724,49.914,153.684,52.296,149.798,52.296"/>
<polygon fill="#622767" points="160.665,52.005 160.665,36.604 169.092,36.604 168.765,38.697 163.19,38.697 163.19,42.904 
	167.863,42.904 167.863,45.019 163.233,45.019 163.233,49.825 169.315,49.825 169.315,52.005 "/>
<polygon fill="#622767" points="181.804,52.005 174.032,52.005 174.032,36.604 176.6,36.604 176.6,49.892 182.218,49.892 "/>
<polygon fill="#622767" points="194.383,52.005 186.611,52.005 186.611,36.604 189.18,36.604 189.18,49.892 194.798,49.892 "/>
<path fill="#622767" d="M203.405,52.296c-1.734,0-3.489-0.467-4.981-1.38l0.964-1.96c1.361,0.804,2.567,1.27,4.106,1.27
	c1.864,0,2.983-0.913,2.983-2.448c0-1.135-0.703-1.848-2.263-2.294l-1.622-0.466c-1.383-0.401-2.371-0.98-2.941-1.848
	c-0.417-0.623-0.637-1.357-0.637-2.249c0-2.715,2.107-4.563,5.158-4.563c1.731,0,3.469,0.514,4.805,1.47l-1.14,1.804
	c-1.406-0.847-2.373-1.181-3.577-1.181c-1.493,0-2.48,0.823-2.48,2.093c0,0.956,0.526,1.447,2.02,1.892l1.798,0.534
	c2.194,0.645,3.731,2.067,3.731,4.385C209.331,49.914,207.289,52.296,203.405,52.296"/>
<path fill="#622767" d="M220.372,52.252c-2.02,0-3.622-0.779-4.807-2.227c-1.143-1.4-1.733-3.271-1.733-5.497
	c0-1.848,0.33-3.382,1.009-4.673c1.142-2.204,3.226-3.54,5.596-3.54c1.471,0,2.877,0.444,3.778,1.201l-1.166,1.692
	c-0.811-0.6-1.646-0.868-2.589-0.868c-1.297,0-2.369,0.669-3.028,1.85c-0.527,0.934-0.791,2.225-0.791,4.048
	c0,1.894,0.199,2.96,0.593,3.828c0.658,1.469,1.91,2.182,3.38,2.182c1.075,0,1.866-0.29,2.723-0.978l1.186,1.621
	C223.335,51.806,221.997,52.252,220.372,52.252"/>
<polygon fill="#622767" points="237.033,52.005 237.033,44.885 231.855,44.885 231.855,52.005 229.35,52.005 229.35,36.604 
	231.855,36.604 231.855,42.792 237.033,42.792 237.033,36.604 239.58,36.604 239.58,52.005 "/>
<path fill="#622767" d="M250.094,39.142h-0.021c0,0-1.56,5.653-1.912,6.677h3.731C251.74,45.486,250.204,39.743,250.094,39.142
	 M253.692,52.005l-1.228-4.052h-4.915l-1.229,4.052h-2.612l4.982-15.422h2.917l4.852,15.422H253.692z"/>
<polygon fill="#622767" points="268.313,38.697 263.113,38.697 263.113,42.882 267.347,42.882 267.347,44.952 263.113,44.952 
	263.113,52.005 260.588,52.005 260.588,36.604 268.62,36.604 "/>
<polygon fill="#622767" points="280.783,38.742 276.964,38.742 276.964,52.005 274.44,52.005 274.44,38.742 270.599,38.742 
	270.599,36.604 281.112,36.604 "/>
<path fill="#622767" d="M124.159,75.344l-0.615-7.82c-0.044-0.668-0.076-1.74-0.076-1.805c-0.03,0.094-0.229,1.012-0.413,1.665
	l-2.254,7.96h-1.072l-2.085-7.57c-0.308-1.043-0.492-1.851-0.522-2.039c-0.015,0.153-0.077,1.415-0.123,2.022l-0.583,7.587h-1.211
	l0.921-10.666h1.839l1.918,6.966c0.26,0.979,0.397,1.758,0.414,1.85c0.015-0.078,0.152-0.889,0.382-1.727l1.978-7.09h1.854
	l0.905,10.667H124.159L124.159,75.344z"/>
<path fill="#622767" d="M133.779,64.023c-0.443,0-0.796-0.372-0.796-0.822c0-0.437,0.353-0.793,0.783-0.793
	c0.443,0,0.795,0.356,0.795,0.793C134.561,63.651,134.225,64.023,133.779,64.023 M130.621,64.023c-0.445,0-0.796-0.372-0.796-0.822
	c0-0.437,0.351-0.793,0.781-0.793c0.443,0,0.796,0.356,0.796,0.793C131.402,63.651,131.065,64.023,130.621,64.023 M134.899,74.708
	c-0.645,0.559-1.487,0.825-2.761,0.825c-1.627,0-2.546-0.482-3.112-1.542c-0.276-0.512-0.307-1.196-0.307-1.663v-7.65h1.241v7.184
	c0,0.528,0.045,1.213,0.184,1.54c0.198,0.466,0.767,1.039,2.053,1.039c0.876,0,1.535-0.228,1.857-0.668
	c0.352-0.48,0.398-0.947,0.398-1.663v-7.432h1.242v7.589C135.697,73.558,135.528,74.164,134.899,74.708"/>
<path fill="#622767" d="M144.9,75.344l-3.373-6.529c-0.673-1.291-1.195-2.564-1.195-2.564s0.122,1.523,0.138,2.907l0.062,6.187
	h-1.304V64.678h1.458l3.497,6.813c0.521,1.009,0.934,2.128,0.981,2.238c0-0.031-0.124-1.727-0.138-3.25l-0.049-5.801h1.244v10.666
	H144.9z"/>
<path fill="#622767" d="M155.027,74.894c-0.689,0.45-1.395,0.653-2.36,0.653c-1.258,0-2.331-0.312-3.373-0.964l0.551-0.995
	c0.876,0.638,1.766,0.917,2.822,0.917c0.798,0,1.227-0.124,1.671-0.467c0.505-0.388,0.751-0.9,0.751-1.524
	c0-0.948-0.611-1.602-1.886-1.99l-1.058-0.328c-0.949-0.294-1.455-0.512-1.87-0.948c-0.431-0.467-0.658-1.058-0.658-1.74
	c0-1.821,1.363-3.064,3.401-3.064c1.138,0,2.179,0.342,3.176,1.026l-0.553,0.918c-1.01-0.67-1.655-0.902-2.56-0.902
	c-1.318,0-2.102,0.668-2.102,1.758c0,0.854,0.508,1.337,1.75,1.743l1.209,0.387c0.937,0.295,1.428,0.575,1.857,1.074
	c0.428,0.496,0.688,1.212,0.688,1.88C156.483,73.325,155.963,74.289,155.027,74.894"/>
<polygon fill="#622767" points="165.213,65.75 162.361,65.75 162.361,75.344 161.15,75.344 161.15,65.75 158.328,65.75 
	158.328,64.678 165.291,64.678 "/>
<polygon fill="#622767" points="167.287,75.344 167.287,64.678 173.038,64.678 172.869,65.735 168.562,65.735 168.562,69.237 
	172.164,69.237 172.164,70.338 168.562,70.338 168.562,74.242 173.191,74.242 173.191,75.344 "/>
<path fill="#622767" d="M179.834,65.968c-0.338-0.139-0.751-0.218-1.316-0.218h-1.213v3.979h1.121c0.935,0,1.501-0.171,1.9-0.542
	c0.353-0.328,0.537-0.904,0.537-1.604C180.862,66.885,180.431,66.216,179.834,65.968 M181.138,75.344
	c-0.307-0.697-1.288-2.331-2.684-4.137c-0.414-0.526-0.644-0.667-1.165-0.684v4.82h-1.257V64.678h2.452
	c1.44,0,2.146,0.266,2.653,0.685c0.477,0.388,1.043,1.104,1.043,2.238c0,1.758-1.12,2.925-2.789,2.925h-0.155
	c0.492,0.404,0.844,0.902,1.059,1.198c0.444,0.604,2.423,3.62,2.423,3.62H181.138z"/>
<path fill="#622767" d="M15.559,73.472c0.346,0.403,0.44,0.768,0.468,0.904c-0.057,0.148-0.338,0.51-0.552,0.714l-0.112-0.103
	c0.179-0.283,0.473-0.893-0.004-1.448c-0.346-0.401-0.776-0.369-1.058-0.119c-0.208,0.185-0.404,0.432-0.325,0.979l0.099,0.713
	c0.049,0.377,0.019,0.895-0.37,1.237c-0.449,0.396-1.117,0.363-1.652-0.259l-0.323-0.502l-0.117-0.192
	c0.077-0.143,0.307-0.418,0.504-0.596l0.118,0.105c-0.171,0.267-0.369,0.667,0.026,1.128c0.404,0.469,0.8,0.299,1.017,0.105
	c0.274-0.239,0.269-0.643,0.231-0.92l-0.094-0.595c-0.076-0.465-0.059-1.005,0.392-1.4C14.323,72.765,15.022,72.849,15.559,73.472"
	/>
<path fill="#622767" d="M9.229,68.153c-0.867,0.572-1.551,1.579-0.898,2.597c0.358,0.554,1.192,1.028,2.343,0.266
	c0.777-0.513,1.54-1.561,0.866-2.61C11.128,67.762,10.265,67.471,9.229,68.153 M11.185,71.437c-1.051,0.694-2.369,0.425-3.072-0.671
	c-0.791-1.229-0.312-2.429,0.614-3.039c1.062-0.698,2.36-0.391,3.019,0.637C12.504,69.545,12.129,70.812,11.185,71.437"/>
<path fill="#622767" d="M5.523,65.043c-0.516-0.271-0.916-0.734-1.188-1.336c-0.14-0.31-0.273-0.779-0.321-1.084L3.965,62.45
	c0.127-0.065,0.473-0.258,0.8-0.467l0.081,0.15c-0.347,0.266-0.674,0.731-0.296,1.568c0.396,0.884,1.287,1.378,2.467,0.832
	c1.194-0.552,1.508-1.626,1.082-2.573c-0.334-0.745-0.961-0.853-1.358-0.83l-0.044-0.159c0.314-0.099,0.757-0.12,0.902-0.085
	l0.147,0.176c0.102,0.105,0.376,0.482,0.543,0.852c0.233,0.519,0.353,1.062,0.265,1.612c-0.105,0.608-0.461,1.206-1.197,1.545
	C6.724,65.365,6.055,65.328,5.523,65.043"/>
<path fill="#622767" d="M3.527,58.606c-0.631,0.208-0.73,0.252-0.648,0.62l0.035,0.152l-0.15,0.037
	c-0.083-0.306-0.144-0.513-0.223-0.767c-0.077-0.244-0.147-0.447-0.255-0.745l0.144-0.059l0.06,0.145
	c0.143,0.349,0.249,0.327,0.881,0.124l2.126-0.694c0.631-0.203,0.711-0.246,0.639-0.616l-0.031-0.156l0.157-0.036
	c0.082,0.307,0.14,0.512,0.219,0.758c0.08,0.252,0.151,0.455,0.258,0.756l-0.146,0.062l-0.065-0.148
	c-0.155-0.341-0.243-0.326-0.875-0.122L3.527,58.606z"/>
<path fill="#622767" d="M2.272,54.078c-0.638,0.131-0.728,0.163-0.697,0.541l0.005,0.102l-0.155,0.018
	c-0.041-0.27-0.076-0.483-0.129-0.74l-0.233-1.172c-0.08-0.397-0.155-0.766-0.187-0.835c0.097-0.063,0.532-0.19,0.797-0.269
	l0.047,0.152c-0.272,0.154-0.475,0.252-0.492,0.595c-0.005,0.137,0.028,0.338,0.086,0.611l0.087,0.449
	c0.039,0.187,0.051,0.185,0.283,0.136l1.231-0.252c0.173-0.035,0.169-0.053,0.132-0.24l-0.072-0.361
	c-0.054-0.263-0.104-0.454-0.143-0.523l-0.247-0.106l-0.262,0.002l-0.031-0.165c0.149-0.031,0.393-0.057,0.627-0.103
	c0.221-0.045,0.451-0.118,0.586-0.145l0.04,0.162l-0.227,0.104l-0.196,0.242c-0.004,0.093,0.017,0.242,0.064,0.486l0.076,0.361
	c0.037,0.187,0.046,0.203,0.206,0.173l0.866-0.179c0.326-0.068,0.535-0.129,0.618-0.25c0.058-0.089,0.099-0.235-0.008-0.783
	c-0.098-0.481-0.156-0.656-0.253-0.779c-0.085-0.099-0.334-0.222-0.685-0.319l0.013-0.166c0.224,0,0.728,0.059,0.91,0.106
	c0.1,0.563,0.204,1.12,0.315,1.677l0.112,0.559c0.053,0.27,0.1,0.479,0.187,0.843l-0.15,0.047l-0.059-0.203
	c-0.102-0.35-0.202-0.36-0.849-0.227L2.272,54.078z"/>
<path fill="#622767" d="M3.456,46.208c0.658-0.047,0.745-0.065,0.759-0.438l0.001-0.204l0.159,0.004
	c0.013,0.361,0.02,0.578,0.038,0.83c0.016,0.256,0.039,0.477,0.078,0.883l-0.157,0.011L4.3,47.066
	c-0.057-0.357-0.151-0.384-0.808-0.338l-2.796,0.189c-0.195,0.016-0.2,0.016-0.188,0.205l0.024,0.347
	c0.016,0.273,0.055,0.624,0.208,0.769l0.451,0.258l-0.032,0.168c-0.287-0.083-0.695-0.15-0.949-0.178l-0.006-0.12
	c0.196-0.052,0.177-0.262,0.156-0.553l-0.17-2.567c-0.023-0.344-0.042-0.399-0.208-0.484l0.01-0.115
	c0.262,0.055,0.771,0.063,0.958,0.031l0.023,0.161L0.525,45.03c-0.096,0.153-0.127,0.397-0.106,0.747l0.03,0.448
	c0.014,0.191,0.018,0.185,0.226,0.172L3.456,46.208z"/>
<path fill="#622767" d="M2.344,41.082c0.14,0.059,0.147,0.053,0.158-0.124l0.046-0.781c0.011-0.184-0.013-0.199-0.185-0.152
	l-1.041,0.278l-0.405,0.121v0.015c0.03,0.02,0.176,0.092,0.36,0.176L2.344,41.082z M2.979,39.86
	c-0.143,0.035-0.163,0.061-0.174,0.249l-0.058,0.958l0.135,0.25l0.646,0.265c0.273,0.113,0.441,0.167,0.51,0.173l0.134-0.177
	l0.032-0.208l0.156,0.022c-0.021,0.165-0.034,0.359-0.06,0.66c-0.012,0.209-0.012,0.438-0.016,0.611l-0.159,0.002l-0.007-0.212
	c-0.001-0.152-0.062-0.299-0.283-0.399c-0.28-0.133-0.675-0.336-1.362-0.646l-1.651-0.755c-0.219-0.101-0.337-0.147-0.438-0.135
	l-0.218-0.344l0.062-0.092c0.283-0.068,0.576-0.15,0.856-0.228l2.57-0.712c0.55-0.15,0.647-0.228,0.698-0.5l0.028-0.169l0.155,0.009
	c-0.028,0.261-0.047,0.481-0.063,0.766c-0.021,0.305-0.023,0.547-0.029,0.732l-0.155,0.003l-0.008-0.185l-0.099-0.23l-0.335,0.064
	L2.979,39.86z"/>
<path fill="#622767" d="M5.145,35.061c-0.094,0.526-0.318,0.826-0.405,0.932c-0.15,0.05-0.603,0.047-0.894,0.005l0.009-0.154
	c0.333-0.033,0.983-0.176,1.117-0.9c0.096-0.527-0.196-0.846-0.567-0.917c-0.271-0.051-0.582-0.053-0.957,0.349l-0.491,0.521
	c-0.262,0.274-0.68,0.572-1.187,0.474c-0.583-0.109-0.974-0.663-0.826-1.478c0.036-0.192,0.11-0.411,0.188-0.565l0.081-0.213
	c0.155-0.027,0.512-0.018,0.77,0.031l-0.008,0.159c-0.309,0.026-0.742,0.12-0.853,0.72c-0.113,0.611,0.263,0.82,0.549,0.875
	c0.356,0.068,0.663-0.188,0.855-0.39l0.398-0.442c0.315-0.348,0.744-0.668,1.327-0.56C4.932,33.642,5.297,34.248,5.145,35.061"/>
<path fill="#622767" d="M6.063,23.125c-0.358-0.151-1.028-0.425-1.24-0.399l-0.241,0.242l-0.075,0.141l-0.134-0.07
	c0.106-0.219,0.201-0.432,0.298-0.659c0.101-0.247,0.16-0.407,0.236-0.621l0.143,0.044L5.001,21.95l0.018,0.351
	c0.155,0.171,0.819,0.448,1.144,0.586l0.652,0.277c0.504,0.215,0.999,0.524,1.211,1c0.166,0.366,0.136,0.864-0.044,1.298
	c-0.168,0.404-0.412,0.775-0.772,0.959c-0.382,0.2-0.864,0.169-1.551-0.125l-1.361-0.583c-0.603-0.256-0.703-0.285-0.874,0.042
	L3.35,25.896l-0.132-0.07c0.134-0.287,0.222-0.485,0.316-0.72c0.103-0.239,0.177-0.434,0.284-0.727l0.144,0.047l-0.048,0.146
	c-0.112,0.352-0.02,0.406,0.583,0.662l1.246,0.532c0.928,0.397,1.662,0.365,2.034-0.53c0.352-0.849-0.171-1.452-1.051-1.826
	L6.063,23.125z"/>
<path fill="#622767" d="M11.031,17.22l0.943,0.568l-0.003,0.138c-0.129,0.009-0.414,0.048-1.227,0.187l-2.17,0.375
	c-0.255,0.043-0.915,0.136-1.101,0.176l-0.007,0.01l0.332,0.244l1.162,0.726c0.251,0.158,0.95,0.581,1.161,0.593l0.271-0.212
	l0.117-0.157l0.128,0.095c-0.159,0.237-0.28,0.423-0.402,0.623c-0.139,0.227-0.223,0.377-0.328,0.573l-0.138-0.074l0.074-0.156
	l0.036-0.303c-0.146-0.198-0.798-0.598-1.057-0.759l-1.538-0.963c-0.149-0.094-0.267-0.159-0.457-0.122l-0.331,0.256l-0.068,0.083
	l-0.124-0.094c0.151-0.217,0.328-0.502,0.388-0.602l0.132-0.258c0.337,0.063,1.433-0.143,1.735-0.189l0.899-0.163
	c0.638-0.107,1.098-0.193,1.507-0.289l0.007-0.009l-0.209-0.163L9.62,16.643c-0.25-0.158-0.947-0.585-1.169-0.582
	c-0.067,0.001-0.151,0.07-0.31,0.268l-0.068,0.086l-0.125-0.093c0.162-0.242,0.278-0.424,0.404-0.628
	c0.141-0.234,0.221-0.378,0.32-0.568l0.139,0.073l-0.034,0.083c-0.08,0.189-0.101,0.324-0.071,0.373
	c0.134,0.21,0.801,0.614,1.048,0.769L11.031,17.22z"/>
<path fill="#622767" d="M11.633,12.792c-0.52-0.422-0.608-0.479-0.864-0.205l-0.109,0.115l-0.119-0.114
	c0.206-0.24,0.345-0.404,0.509-0.611c0.157-0.2,0.285-0.372,0.475-0.625l0.129,0.091l-0.087,0.131
	c-0.207,0.313-0.129,0.389,0.389,0.811l1.738,1.414c0.521,0.42,0.597,0.469,0.862,0.202l0.113-0.11l0.113,0.108
	c-0.204,0.241-0.342,0.407-0.5,0.605c-0.165,0.208-0.294,0.379-0.478,0.638l-0.129-0.091l0.082-0.136
	c0.195-0.321,0.139-0.387-0.382-0.809L11.633,12.792z"/>
<path fill="#622767" d="M14.339,9.157c-0.35-0.151-0.509-0.179-0.723-0.013l-0.091,0.074l-0.106-0.125
	c0.139-0.121,0.289-0.258,0.481-0.45c0.199-0.196,0.348-0.358,0.534-0.551l0.119,0.105l-0.059,0.076
	c-0.146,0.193-0.158,0.254-0.125,0.296c0.053,0.036,0.366,0.205,0.837,0.413c0.718,0.322,1.43,0.64,2.155,0.935
	c-0.149-0.439-0.411-1.099-0.545-1.438c-0.165-0.442-0.457-1.161-0.569-1.431l-0.131-0.218c-0.033-0.032-0.112-0.023-0.285,0.114
	L15.74,7.013l-0.106-0.125c0.133-0.115,0.308-0.28,0.479-0.45l0.426-0.442l0.12,0.104l-0.126,0.142l-0.081,0.393
	c0.084,0.339,0.264,0.88,0.512,1.544l0.301,0.801c0.222,0.596,0.522,1.333,0.678,1.65l-0.037,0.063l-0.079,0.055
	c-0.235-0.144-0.525-0.29-0.792-0.4L14.339,9.157z"/>
<path fill="#622767" d="M19.708,4.621c-0.394-0.529-0.459-0.599-0.781-0.41L18.84,4.263l-0.087-0.134
	c0.225-0.155,0.4-0.28,0.605-0.437l0.945-0.717c0.323-0.246,0.618-0.471,0.667-0.531c0.095,0.063,0.395,0.407,0.582,0.617
	l-0.118,0.104c-0.252-0.182-0.428-0.325-0.739-0.192c-0.125,0.054-0.288,0.169-0.508,0.34l-0.364,0.274
	c-0.15,0.113-0.144,0.124,0,0.317l0.754,1.02l0.269,0.017l0.292-0.222c0.211-0.162,0.359-0.29,0.404-0.356l-0.01-0.27l-0.115-0.238
	l0.136-0.094c0.088,0.123,0.218,0.336,0.361,0.53c0.133,0.183,0.298,0.361,0.379,0.473l-0.126,0.103l-0.193-0.165l-0.299-0.076
	c-0.085,0.035-0.208,0.121-0.405,0.27L20.978,5.12l-0.064,0.263l0.53,0.717c0.201,0.271,0.344,0.433,0.488,0.459
	c0.105,0.015,0.253-0.011,0.696-0.346c0.386-0.292,0.515-0.423,0.585-0.566c0.053-0.117,0.058-0.398-0.009-0.764l0.153-0.059
	c0.096,0.204,0.259,0.692,0.296,0.88c-0.461,0.333-0.912,0.667-1.358,1.007l-0.455,0.345c-0.216,0.164-0.382,0.299-0.67,0.534
	L21.063,7.47L21.22,7.33c0.265-0.242,0.232-0.341-0.162-0.872L19.708,4.621z"/>
<path fill="#622767" d="M25.71,1.625l0.118,0.175c0.026,0.008,0.115-0.027,0.394-0.186c0.195-0.112,0.394-0.253,0.482-0.466
	c0.085-0.198,0.101-0.465-0.105-0.841c-0.244-0.439-0.739-0.704-1.348-0.358c-0.339,0.193-0.342,0.225-0.257,0.379L25.71,1.625z
	 M24.823,1.088c-0.291-0.528-0.359-0.612-0.598-0.513l-0.189,0.077L23.966,0.51c0.292-0.201,0.662-0.432,1.195-0.737
	c0.34-0.192,0.677-0.347,1.005-0.353c0.34-0.011,0.669,0.13,0.885,0.52c0.291,0.525,0.039,1.047-0.174,1.314l0.103,0.117
	c0.832,0.468,1.366,0.747,1.914,0.853l0.462-0.061l0.046,0.076l-0.223,0.165c-0.464,0.264-0.819,0.284-1.52-0.057
	c-0.252-0.122-0.688-0.378-0.997-0.531c-0.151-0.076-0.268-0.081-0.485,0.044c-0.246,0.138-0.254,0.151-0.191,0.267l0.386,0.699
	c0.324,0.584,0.371,0.644,0.713,0.506l0.123-0.048l0.065,0.144c-0.253,0.128-0.441,0.23-0.659,0.354
	c-0.23,0.13-0.423,0.248-0.674,0.404l-0.087-0.131l0.125-0.094c0.295-0.218,0.269-0.297-0.052-0.879L24.823,1.088z"/>
<path fill="#622767" d="M32.505,0.961c-0.488,0.2-0.854,0.172-0.99,0.15c-0.123-0.1-0.365-0.488-0.485-0.761l0.134-0.075
	c0.205,0.267,0.673,0.749,1.347,0.475c0.486-0.2,0.598-0.623,0.458-0.975c-0.102-0.259-0.271-0.528-0.804-0.632L31.47-1
	c-0.368-0.076-0.837-0.273-1.028-0.757c-0.222-0.563,0.028-1.189,0.784-1.498c0.18-0.073,0.403-0.129,0.572-0.144l0.217-0.047
	c0.108,0.121,0.292,0.43,0.388,0.677l-0.138,0.08c-0.189-0.253-0.497-0.574-1.055-0.346c-0.572,0.231-0.539,0.664-0.433,0.937
	c0.132,0.341,0.511,0.469,0.78,0.523l0.58,0.105c0.458,0.082,0.953,0.276,1.177,0.837C33.571,0.017,33.264,0.657,32.505,0.961"/>
<path fill="#622767" d="M35.93-3.765c-0.181-0.647-0.224-0.748-0.588-0.674l-0.154,0.03L35.16-4.562
	c0.305-0.076,0.511-0.129,0.765-0.201c0.239-0.071,0.442-0.137,0.736-0.239l0.056,0.147l-0.148,0.059
	c-0.347,0.135-0.329,0.242-0.146,0.888l0.617,2.172c0.179,0.646,0.218,0.729,0.584,0.67l0.155-0.026l0.032,0.154
	c-0.305,0.077-0.51,0.13-0.751,0.2c-0.252,0.074-0.456,0.138-0.755,0.24l-0.055-0.15l0.146-0.062
	c0.342-0.146,0.332-0.235,0.147-0.881L35.93-3.765z"/>
<path fill="#622767" d="M42.257-2.884c0.106,0.657,0.133,0.742,0.498,0.721l0.2-0.016l0.017,0.16
	c-0.356,0.046-0.567,0.075-0.814,0.117c-0.247,0.042-0.461,0.083-0.857,0.162l-0.024-0.158l0.22-0.055
	c0.345-0.091,0.363-0.189,0.254-0.847l-0.456-2.798c-0.032-0.196-0.034-0.2-0.219-0.17l-0.338,0.057
	c-0.268,0.045-0.604,0.115-0.735,0.283c-0.124,0.163-0.165,0.31-0.206,0.479l-0.169-0.018c0.053-0.297,0.08-0.714,0.083-0.971
	l0.12-0.018c0.07,0.193,0.272,0.154,0.556,0.105l2.5-0.419c0.335-0.056,0.389-0.077,0.455-0.255h0.115
	c-0.027,0.267,0.013,0.782,0.06,0.966l-0.155,0.041L43.128-5.95c-0.158-0.083-0.402-0.094-0.741-0.036L41.95-5.912
	c-0.186,0.031-0.178,0.036-0.145,0.241L42.257-2.884z"/>
<path fill="#622767" d="M47.201-4.504c-0.045,0.147-0.04,0.152,0.138,0.147l0.77-0.028c0.182-0.008,0.195-0.032,0.129-0.203
	l-0.374-1.024l-0.159-0.395h-0.011c-0.017,0.032-0.074,0.188-0.138,0.381L47.201-4.504z M48.464-3.985
	c-0.049-0.138-0.077-0.157-0.264-0.149L47.252-4.1l-0.233,0.162l-0.195,0.676C46.74-2.971,46.703-2.8,46.705-2.729l0.187,0.12
	l0.207,0.011l-0.007,0.158c-0.164-0.006-0.357,0.001-0.654,0.006c-0.206,0.007-0.431,0.028-0.599,0.041L45.821-2.55l0.204-0.027
	c0.149-0.018,0.288-0.095,0.365-0.327c0.102-0.296,0.265-0.716,0.501-1.438l0.579-1.741c0.078-0.233,0.114-0.354,0.091-0.455
	l0.316-0.253l0.097,0.054c0.089,0.275,0.201,0.566,0.307,0.841l0.95,2.524c0.202,0.54,0.289,0.633,0.558,0.654l0.17,0.013
	l0.001,0.156c-0.254-0.002-0.478,0-0.76,0.01c-0.301,0.013-0.537,0.033-0.717,0.048l-0.017-0.159l0.182-0.026l0.215-0.123
	L48.769-3.13L48.464-3.985z"/>
<path fill="#622767" d="M53.947-3.266c-0.06,0.667-0.055,0.757,0.305,0.826l0.198,0.036l-0.024,0.159
	c-0.355-0.045-0.567-0.071-0.818-0.095c-0.249-0.021-0.47-0.035-0.87-0.059l0.016-0.16l0.224,0.002c0.359,0,0.398-0.094,0.458-0.758
	l0.248-2.831c0.017-0.197,0.017-0.204-0.17-0.221l-0.341-0.029c-0.268-0.024-0.614-0.042-0.78,0.089l-0.32,0.413l-0.159-0.059
	c0.122-0.276,0.253-0.673,0.32-0.922l0.117,0.011c0.021,0.205,0.226,0.217,0.515,0.243l2.529,0.229
	c0.335,0.03,0.394,0.024,0.502-0.133l0.109,0.029c-0.092,0.252-0.18,0.764-0.177,0.955l-0.164-0.003l-0.116-0.476
	c-0.136-0.121-0.367-0.192-0.71-0.223l-0.442-0.041c-0.188-0.016-0.183-0.009-0.201,0.199L53.947-3.266z"/>
<path fill="#622767" d="M59.209-4.763C59.344-5.421,59.354-5.529,59-5.638l-0.151-0.046l0.046-0.152
	c0.302,0.077,0.509,0.129,0.767,0.182c0.245,0.054,0.456,0.09,0.766,0.145l-0.021,0.157L60.25-5.371
	c-0.368-0.046-0.404,0.056-0.539,0.714l-0.455,2.213c-0.133,0.66-0.14,0.75,0.212,0.871l0.148,0.051l-0.043,0.151
	c-0.306-0.079-0.512-0.127-0.759-0.181c-0.257-0.053-0.464-0.091-0.772-0.142l0.017-0.159l0.157,0.016
	c0.372,0.031,0.4-0.052,0.538-0.711L59.209-4.763z"/>
<path fill="#622767" d="M63.236-0.264c-0.502-0.165-0.768-0.425-0.86-0.529c-0.029-0.155,0.031-0.612,0.107-0.899l0.149,0.03
	c-0.008,0.338,0.049,1.01,0.739,1.236c0.504,0.163,0.854-0.09,0.967-0.453c0.084-0.266,0.126-0.581-0.22-1.009l-0.446-0.56
	C63.435-2.745,63.2-3.204,63.356-3.7c0.183-0.575,0.774-0.897,1.549-0.645c0.184,0.061,0.388,0.163,0.529,0.26l0.198,0.104
	c0.007,0.163-0.046,0.52-0.126,0.775l-0.157-0.03c0.017-0.316-0.018-0.764-0.593-0.949c-0.584-0.191-0.835,0.161-0.923,0.44
	c-0.111,0.351,0.097,0.695,0.272,0.911l0.382,0.459c0.302,0.36,0.56,0.831,0.375,1.406C64.654-0.304,64.012-0.01,63.236-0.264"/>
<path fill="#622767" d="M73.203,2.289c-0.027,0.332-0.057,0.653-0.069,0.97l0.011,0.007c0.296-0.167,0.597-0.37,0.897-0.566
	l1.12-0.735c0.54-0.349,0.869-0.555,1.033-0.796c0.172,0.127,0.286,0.197,0.395,0.26c0.133,0.083,0.315,0.185,0.481,0.272
	l-0.073,0.137l-0.12-0.054c-0.362-0.17-0.462-0.096-0.681,0.29c-0.332,0.584-0.922,1.596-1.343,2.406
	c-0.143,0.284-0.233,0.422,0.003,0.604l0.163,0.119l-0.085,0.135c-0.213-0.145-0.431-0.285-0.626-0.402
	c-0.189-0.115-0.433-0.256-0.664-0.384l0.069-0.142l0.164,0.077c0.282,0.134,0.333,0.048,0.54-0.302l1.326-2.284l-0.01-0.006
	c-0.075,0.038-0.538,0.349-0.769,0.497l-1.043,0.664c-0.526,0.335-1.069,0.701-1.313,0.891l-0.068-0.01l-0.035-0.051
	c0.082-0.344,0.139-1.036,0.171-1.378l0.136-1.348c0.036-0.318,0.089-0.671,0.122-0.994L72.919,0.16
	c-0.22,0.326-0.423,0.632-0.626,0.939C72.078,1.42,71.771,1.893,71.5,2.357c-0.24,0.404-0.261,0.511-0.06,0.655l0.196,0.138
	l-0.084,0.136c-0.176-0.122-0.384-0.255-0.588-0.38c-0.172-0.104-0.367-0.216-0.559-0.316l0.07-0.143l0.128,0.055
	c0.243,0.11,0.34,0.119,0.598-0.245c0.244-0.341,0.448-0.624,0.796-1.146c0.295-0.436,0.591-0.886,0.777-1.179
	c0.216-0.339,0.216-0.436-0.083-0.688l-0.08-0.065l0.103-0.123l0.415,0.275c0.125,0.075,0.27,0.162,0.456,0.253
	c-0.146,0.201-0.212,0.62-0.251,1.07L73.203,2.289z"/>
<path fill="#622767" d="M81.167,7.905c0.667-0.798,1.037-1.963,0.125-2.744c-0.496-0.428-1.429-0.637-2.314,0.425
	c-0.6,0.715-1.033,1.941-0.091,2.75C79.46,8.829,80.369,8.86,81.167,7.905 M78.371,5.33c0.808-0.969,2.146-1.096,3.13-0.251
	c1.102,0.948,0.982,2.234,0.269,3.087C80.95,9.144,79.622,9.226,78.7,8.433C77.639,7.523,77.641,6.202,78.371,5.33"/>
<path fill="#622767" d="M85.674,13.961l-0.816,0.74l-0.132-0.046c0.031-0.128,0.08-0.412,0.193-1.24l0.301-2.21
	c0.036-0.258,0.145-0.925,0.163-1.117l-0.008-0.011l-0.326,0.247l-1.033,0.905c-0.224,0.196-0.83,0.746-0.908,0.946l0.118,0.323
	l0.114,0.163l-0.128,0.093c-0.174-0.224-0.313-0.396-0.466-0.574c-0.167-0.201-0.284-0.327-0.437-0.485l0.109-0.114l0.126,0.119
	l0.275,0.127c0.227-0.083,0.801-0.594,1.026-0.793l1.367-1.199c0.135-0.116,0.227-0.209,0.25-0.404L85.324,9.03l-0.06-0.089
	l0.125-0.096c0.159,0.215,0.375,0.469,0.45,0.556l0.203,0.208c-0.163,0.307-0.299,1.426-0.343,1.734l-0.12,0.918
	c-0.091,0.65-0.146,1.117-0.18,1.542l0.006,0.01l0.218-0.156l1.012-0.887c0.224-0.194,0.834-0.741,0.9-0.956
	c0.018-0.067-0.02-0.167-0.162-0.382l-0.058-0.088l0.125-0.097c0.177,0.228,0.312,0.395,0.466,0.577
	c0.176,0.206,0.288,0.328,0.438,0.486l-0.109,0.113l-0.066-0.059l-0.329-0.18c-0.241,0.065-0.817,0.591-1.037,0.78L85.674,13.961z"
	/>
<path fill="#622767" d="M88.997,17.003l-0.057,0.195l0.413,0.661l0.242,0.012l0.679-0.847l0.257-0.338l-0.006-0.01
	c-0.038,0.002-0.198,0.03-0.393,0.073L88.997,17.003z M89.191,18.369l-0.007-0.305l-0.507-0.81l-0.256-0.124l-0.672,0.172
	c-0.287,0.072-0.454,0.128-0.512,0.166l-0.008,0.223l0.095,0.187l-0.141,0.075c-0.077-0.147-0.179-0.315-0.332-0.568
	c-0.114-0.177-0.244-0.363-0.341-0.504l0.126-0.098l0.125,0.168c0.093,0.12,0.224,0.202,0.462,0.153
	c0.305-0.06,0.743-0.131,1.478-0.29l1.77-0.374c0.241-0.048,0.362-0.081,0.434-0.152l0.377,0.15l0.003,0.11
	c-0.19,0.222-0.38,0.465-0.563,0.696l-1.665,2.108c-0.359,0.447-0.395,0.569-0.276,0.817l0.075,0.156l-0.133,0.083
	c-0.126-0.228-0.241-0.417-0.393-0.659c-0.16-0.258-0.297-0.453-0.4-0.605l0.126-0.098l0.114,0.148l0.214,0.125l0.236-0.251
	L89.191,18.369z"/>
<path fill="#622767" d="M90.218,23.554c-0.226-0.481-0.222-0.857-0.214-0.997c0.092-0.131,0.459-0.398,0.719-0.539l0.083,0.131
	c-0.247,0.223-0.691,0.727-0.379,1.393c0.225,0.482,0.65,0.568,0.988,0.404c0.248-0.121,0.502-0.307,0.569-0.855l0.093-0.714
	c0.056-0.377,0.22-0.865,0.683-1.089c0.537-0.261,1.172-0.047,1.523,0.698c0.085,0.179,0.154,0.397,0.177,0.569l0.062,0.219
	c-0.112,0.117-0.406,0.321-0.642,0.436l-0.084-0.134c0.235-0.208,0.531-0.542,0.271-1.091c-0.263-0.563-0.688-0.505-0.948-0.377
	c-0.329,0.158-0.434,0.543-0.469,0.823l-0.063,0.596c-0.052,0.469-0.215,0.982-0.75,1.244C91.216,24.57,90.569,24.299,90.218,23.554
	"/>
<path fill="#622767" d="M93.449,28.949c-0.627,0.205-0.708,0.248-0.631,0.608l0.046,0.198l-0.155,0.036
	c-0.098-0.346-0.158-0.555-0.236-0.795c-0.079-0.243-0.152-0.452-0.288-0.834l0.148-0.049l0.089,0.212
	c0.139,0.335,0.239,0.335,0.863,0.126l2.667-0.88c0.185-0.062,0.191-0.064,0.132-0.245l-0.109-0.333
	c-0.081-0.26-0.203-0.588-0.388-0.694c-0.176-0.099-0.328-0.119-0.498-0.136l-0.008-0.171c0.301,0.008,0.71-0.027,0.964-0.063
	l0.036,0.114c-0.181,0.099-0.108,0.296-0.019,0.575l0.787,2.448c0.103,0.326,0.133,0.377,0.318,0.416l0.017,0.115
	c-0.267,0.015-0.765,0.133-0.937,0.211l-0.06-0.153l0.384-0.296c0.056-0.173,0.032-0.419-0.074-0.75l-0.139-0.432
	c-0.059-0.18-0.063-0.172-0.26-0.106L93.449,28.949z"/>
<path fill="#622767" d="M96.936,33.318c0.641-0.123,0.73-0.153,0.706-0.531l-0.007-0.102l0.157-0.017
	c0.037,0.271,0.07,0.485,0.12,0.74l0.217,1.175c0.075,0.4,0.141,0.77,0.174,0.842c-0.098,0.056-0.535,0.18-0.801,0.255l-0.043-0.155
	c0.273-0.148,0.479-0.247,0.499-0.586c0.007-0.139-0.023-0.339-0.075-0.615l-0.084-0.447c-0.035-0.191-0.045-0.188-0.281-0.143
	l-1.233,0.234c-0.172,0.034-0.169,0.053-0.135,0.241l0.066,0.362c0.051,0.262,0.097,0.454,0.138,0.524l0.243,0.108l0.259,0.003
	l0.026,0.163c-0.148,0.03-0.394,0.05-0.63,0.095c-0.22,0.042-0.451,0.111-0.586,0.135l-0.037-0.162l0.23-0.102l0.198-0.238
	c0.012-0.093-0.01-0.243-0.056-0.488l-0.067-0.361c-0.037-0.189-0.043-0.207-0.206-0.175l-0.87,0.166
	c-0.325,0.063-0.531,0.122-0.62,0.241c-0.059,0.091-0.103,0.234,0,0.786c0.088,0.479,0.147,0.656,0.241,0.781
	c0.082,0.102,0.328,0.229,0.68,0.331l-0.016,0.164c-0.221-0.002-0.725-0.069-0.906-0.118c-0.093-0.566-0.19-1.124-0.292-1.68
	l-0.106-0.562c-0.048-0.269-0.094-0.48-0.174-0.845l0.152-0.044l0.056,0.204c0.099,0.351,0.196,0.364,0.843,0.242L96.936,33.318z"/>
<path fill="#622767" d="M96.937,40.109l-0.204,0.031c-0.018,0.019-0.026,0.115-0.008,0.438c0.01,0.229,0.048,0.468,0.197,0.647
	c0.139,0.161,0.366,0.297,0.792,0.273c0.496-0.025,0.949-0.363,0.912-1.068c-0.021-0.394-0.045-0.41-0.221-0.402L96.937,40.109z
	 M97.807,39.539c0.596-0.031,0.701-0.057,0.718-0.319l0.014-0.205h0.157c0.048,0.354,0.091,0.79,0.123,1.414
	c0.022,0.395,0.01,0.77-0.131,1.071c-0.141,0.313-0.411,0.551-0.851,0.573c-0.594,0.034-0.946-0.425-1.086-0.737l-0.149,0.041
	c-0.782,0.554-1.265,0.913-1.599,1.368c-0.089,0.111-0.148,0.275-0.153,0.445l-0.085,0.012l-0.048-0.277
	c-0.027-0.542,0.113-0.873,0.722-1.358c0.224-0.179,0.643-0.461,0.914-0.675c0.132-0.104,0.19-0.208,0.176-0.462
	c-0.017-0.286-0.021-0.298-0.153-0.291l-0.79,0.042c-0.658,0.036-0.732,0.051-0.763,0.425l-0.011,0.131l-0.16-0.002
	c0-0.288-0.006-0.503-0.02-0.757c-0.014-0.268-0.031-0.496-0.062-0.793l0.157-0.02l0.027,0.158c0.063,0.367,0.145,0.375,0.804,0.338
	L97.807,39.539z"/>
<path fill="#622767" d="M97.852,46.161c0.664,0.042,0.771,0.035,0.826-0.338l0.023-0.157l0.153,0.023
	c-0.033,0.318-0.051,0.532-0.067,0.798c-0.017,0.254-0.023,0.472-0.029,0.79l-0.157,0.002l-0.003-0.16
	c-0.009-0.376-0.115-0.395-0.778-0.438l-2.228-0.138c-0.663-0.042-0.754-0.034-0.818,0.335l-0.027,0.161l-0.156-0.024
	c0.03-0.317,0.05-0.532,0.066-0.786c0.014-0.267,0.022-0.482,0.03-0.801l0.156-0.001l0.009,0.159
	c0.021,0.376,0.108,0.395,0.772,0.437L97.852,46.161z"/>
<path fill="#622767" d="M97.391,50.81c0.641,0.115,0.737,0.12,0.842-0.244l0.028-0.097l0.156,0.042
	c-0.062,0.265-0.104,0.476-0.146,0.732l-0.204,1.176c-0.068,0.403-0.132,0.77-0.126,0.849c-0.109,0.02-0.563-0.023-0.837-0.046
	l0.014-0.158c0.307-0.043,0.534-0.061,0.668-0.372c0.054-0.124,0.093-0.325,0.144-0.601l0.078-0.449
	c0.031-0.188,0.018-0.191-0.216-0.231l-1.236-0.219c-0.172-0.028-0.173-0.009-0.208,0.177l-0.062,0.362
	c-0.044,0.261-0.065,0.458-0.054,0.538l0.19,0.188l0.244,0.097l-0.038,0.158c-0.147-0.027-0.384-0.093-0.617-0.134
	c-0.222-0.039-0.462-0.056-0.595-0.079l0.023-0.163l0.248-0.014l0.269-0.152c0.04-0.084,0.073-0.233,0.112-0.479l0.064-0.36
	c0.032-0.188,0.028-0.21-0.133-0.238l-0.87-0.152c-0.325-0.058-0.538-0.076-0.661,0.005c-0.086,0.062-0.175,0.182-0.272,0.731
	c-0.081,0.482-0.088,0.667-0.044,0.817c0.043,0.125,0.23,0.329,0.521,0.55l-0.069,0.148c-0.209-0.082-0.657-0.322-0.809-0.434
	c0.11-0.563,0.212-1.117,0.307-1.673l0.097-0.563c0.044-0.27,0.077-0.484,0.128-0.856l0.157,0.018l-0.018,0.21
	c-0.029,0.361,0.057,0.409,0.707,0.522L97.391,50.81z"/>
<path fill="#622767" d="M93.003,59.56c-0.179-0.06-0.888-0.294-1.049-0.326l-0.028-0.137c0.126-0.039,0.389-0.146,1.149-0.478
	l2.021-0.884c0.237-0.102,0.858-0.351,1.03-0.436l0.003-0.012c-0.064-0.047-0.198-0.098-0.379-0.157l-1.296-0.429
	c-0.279-0.09-1.058-0.336-1.269-0.297l-0.21,0.271l-0.079,0.183l-0.146-0.062c0.101-0.27,0.172-0.474,0.245-0.701
	c0.082-0.254,0.129-0.418,0.183-0.636l0.155,0.038l-0.034,0.17l0.033,0.306c0.187,0.157,0.916,0.39,1.203,0.485l1.723,0.565
	c0.166,0.056,0.292,0.091,0.469,0.01l0.264-0.33l0.044-0.095l0.142,0.057c-0.098,0.248-0.201,0.567-0.236,0.678l-0.068,0.286
	c-0.342,0.021-1.358,0.483-1.641,0.601l-0.837,0.373c-0.597,0.256-1.021,0.452-1.398,0.643l-0.003,0.011l0.241,0.107l1.276,0.42
	c0.28,0.092,1.056,0.342,1.271,0.288c0.066-0.021,0.134-0.105,0.239-0.339l0.046-0.097l0.141,0.059
	c-0.102,0.274-0.173,0.477-0.245,0.709c-0.086,0.258-0.131,0.416-0.179,0.63l-0.152-0.038l0.015-0.088
	c0.033-0.201,0.025-0.34-0.016-0.38c-0.183-0.174-0.924-0.404-1.197-0.497L93.003,59.56z"/>
<path fill="#622767" d="M90.193,63.146c0.233-0.481,0.525-0.71,0.638-0.789c0.155-0.009,0.592,0.116,0.861,0.237l-0.047,0.144
	c-0.33-0.057-0.994-0.096-1.312,0.565c-0.23,0.481-0.033,0.866,0.303,1.035c0.248,0.123,0.548,0.209,1.014-0.076l0.611-0.373
	c0.325-0.192,0.803-0.363,1.264-0.136c0.535,0.264,0.765,0.901,0.409,1.643c-0.085,0.177-0.213,0.369-0.329,0.495l-0.13,0.183
	c-0.161-0.017-0.5-0.119-0.734-0.237l0.05-0.15c0.306,0.061,0.745,0.087,1.011-0.462c0.268-0.56-0.039-0.858-0.299-0.987
	c-0.326-0.162-0.689-0.003-0.926,0.143l-0.501,0.318c-0.393,0.251-0.888,0.442-1.424,0.18C90.033,64.57,89.837,63.887,90.193,63.146
	"/>
<path fill="#622767" d="M90.765,69.021c0.563,0.354,0.659,0.398,0.881,0.099l0.095-0.128l0.123,0.092
	c-0.176,0.264-0.295,0.444-0.433,0.672c-0.132,0.216-0.241,0.4-0.391,0.68l-0.141-0.075l0.073-0.142
	c0.168-0.334,0.084-0.402-0.478-0.755l-1.895-1.198c-0.563-0.351-0.645-0.389-0.877-0.095l-0.099,0.124l-0.126-0.091
	c0.178-0.264,0.294-0.444,0.429-0.661c0.138-0.227,0.243-0.415,0.4-0.688l0.139,0.072l-0.067,0.146
	c-0.157,0.341-0.09,0.398,0.473,0.754L90.765,69.021z"/>
<path fill="#622767" d="M85.226,71.307c0.32-0.423,0.654-0.59,0.781-0.642c0.156,0.026,0.556,0.235,0.797,0.408l-0.076,0.131
	c-0.311-0.122-0.954-0.297-1.399,0.286c-0.318,0.422-0.204,0.841,0.092,1.074c0.219,0.171,0.496,0.315,1.008,0.132l0.672-0.234
	c0.354-0.126,0.858-0.195,1.266,0.125c0.469,0.367,0.567,1.037,0.069,1.692l-0.418,0.416l-0.166,0.154
	c-0.15-0.051-0.464-0.223-0.671-0.386l0.081-0.138c0.288,0.121,0.712,0.24,1.082-0.243c0.375-0.493,0.133-0.852-0.094-1.029
	c-0.288-0.226-0.676-0.143-0.936-0.05l-0.556,0.207c-0.433,0.163-0.96,0.249-1.429-0.12C84.782,72.667,84.728,71.959,85.226,71.307"
	/>
<path fill="#622767" d="M79.58,79.275c-8.45,6.416-18.944,10.214-30.312,10.215c-10.29-0.001-19.857-3.111-27.848-8.457
	l-0.306,0.474c8.075,5.402,17.754,8.549,28.152,8.549c11.492,0,22.103-3.843,30.646-10.329L79.58,79.275z"/>
<path fill="#622767" d="M70.35,31.771c-2.288-1.914-4.591-3.625-4.414-4.884c0.177-1.259,1.06-1.498-0.156-5.098
	c-1.222-3.601-1.859-4.131-1.859-4.131s0.168-1.163-0.774-2.987c-0.946-1.821-1.587-3.916-4.784-5.202
	c-3.196-1.282-2.67-1.935-4.432-1.562c-1.758,0.375-3.712-0.831-5.725-0.961c-2.014-0.132-3.349,1.056-5.287,1.218
	c-1.938,0.171-2.539,0.521-3.445,1.142c-0.907,0.633-4.086,0.519-5.092,1.141c-1.001,0.618-2.641,2.17-3.576,3.189
	c-0.933,1.013-1.574,2.046-2.092,2.6c-0.521,0.554-0.496,1.726-0.679,3.085c-0.106,0.783-0.877,2.139-1.365,3.586
	c4.414,1.647,6.942,5.282,7.664,6.764c0.874,1.795,1.744,5.987,2.712,7.59c0.963,1.605-0.232,2.374-0.454,3.042
	c-0.222,0.666,0.247,1.914,1.045,3.006c0.798,1.091,2.56,2.498,4.133,4.394c1.575,1.897-1.118,3.341-1.961,3.601
	c-0.84,0.268-0.389,1.33,0.112,2.337c0.506,1.006,0.826,1.917,0.063,2.398c-0.76,0.49-1.073,0.877-1.073,0.877
	c1.737,0.582,1.221,1.809,0.585,2.403c-0.636,0.591,0.58,2.407,0.178,4.792c-0.401,2.39-8.293,2.186-9.574,2.727
	c-1.279,0.538-1.099,4.233-1.133,6.688c-0.037,2.679,0.534,4.632,1.424,6.07c5.638,3.034,12.064,4.76,18.89,4.76
	c0.76,0,1.516-0.026,2.267-0.07c-1.422-4.933-3.684-14.385-3.519-16.905c0.189-3.023,1.749-7.812,2.481-8.738
	c0.734-0.929,3.495-6.421,6.077-7.622c2.582-1.202,4.145-1.49,6.854-1.606c2.706-0.112,6.644,0.142,6.37-3.203
	c-0.264-3.342-0.97-2.899-0.138-3.823c0.827-0.923,0.389-1.633-0.569-1.699c-0.962-0.063,1.804-1.056,0.937-2.582
	c-0.87-1.523-0.738-2.1,0.388-3.103C71.555,34,72.639,33.682,70.35,31.771z"/>
<path fill="#B59EBF" d="M84.375,46.135c-0.573-1.025-2.28-2.825-2.911-4.106c-0.635-1.282-1.014-1.478-0.635-1.987
	c0.38-0.516,0.696-1.222,0.696-1.929c0-0.701-0.252-1.858-0.447-2.759c-0.188-0.897-0.628-3.462-1.133-5.068
	c-0.506-1.605-1.583-2.503-1.334-2.825c0.257-0.319,1.647-1.731,1.334-2.758c-0.316-1.028-0.442-1.221-1.334-1.671
	c-0.883-0.45-4.996-3.465-7.97-3.977c-2.714-0.468-4.015-0.462-6.287-0.747c0.312,0.568,0.788,1.607,1.424,3.481
	c1.216,3.6,0.333,3.838,0.156,5.098c-0.175,1.259,2.126,2.97,4.414,4.884c2.29,1.911,1.206,2.229,0.084,3.235
	c-1.126,1.001-1.259,1.579-0.389,3.102c0.868,1.526-1.898,2.519-0.937,2.581c0.958,0.067,1.395,0.777,0.568,1.7
	c-0.832,0.924-0.125,0.48,0.139,3.822c0.271,3.345-3.665,3.092-6.371,3.204c-2.71,0.116-4.273,0.403-6.855,1.605
	c-2.582,1.204-5.343,6.696-6.077,7.622c-0.732,0.93-2.294,5.719-2.481,8.74c-0.165,2.519,2.095,11.967,3.517,16.901
	c8.774-0.493,16.801-3.82,23.201-9.101c-2.105-1.701-4.508-3.296-4.865-3.44c-0.635-0.258-2.533-1.158-2.025-2.183
	c0.505-1.029,1.518-3.593,3.038-4.751c0,0,1.896-1.346,4.555-1.477c2.659-0.126,4.809-0.256,5.377-1.857
	c0.571-1.605-0.378-2.827-0.314-3.532c0.059-0.707,0.314-1.155,0.504-1.475c0.19-0.321,0.76-1.411,0.507-1.99
	c-0.252-0.575-0.252-0.772-0.061-0.962c0.186-0.193,0.949-0.513,0.632-1.35c-0.318-0.834-0.51-1.472-0.446-1.989
	c0.063-0.512,0.446-0.833,1.709-1.092C84.625,48.83,84.944,47.164,84.375,46.135z"/>
</svg>
